<?xml version="1.0" encoding="UTF-8"?>
<svg width="400px" height="400px" viewBox="0 0 400 400" version="1.1" xmlns="http://www.w3.org/2000/svg" xmlns:xlink="http://www.w3.org/1999/xlink">
    <!-- Generator: Sketch 52.6 (67491) - http://www.bohemiancoding.com/sketch -->
    <title>E-Mail</title>
    <desc>Created with Sketch.</desc>
    <g id="E-Mail" stroke="none" stroke-width="1" fill="none" fill-rule="evenodd">
        <path d="M0,0 L400,0 L400,400 L0,400 L0,0 Z M70.526939,105.728532 L181.323928,193.546565 C186.348109,197.524231 193.271541,199.292083 199.996213,198.960611 C206.709844,199.292083 213.633276,197.53528 218.657456,193.546565 L329.454446,105.728532 C338.332339,98.7344689 336.322666,93 325.059668,93 L200.007256,93 L74.9548434,93 C63.6808025,93 61.6711302,98.7344689 70.526939,105.728532 Z M337.636429,128.433305 L216.402269,220.421043 C211.869117,223.824313 205.931795,225.48175 200.016585,225.404403 C194.090318,225.48175 188.152996,223.813264 183.619844,220.421043 L62.3635711,128.433305 C53.363607,121.615715 46,125.273126 46,136.554745 L46,287.480933 C46,298.762553 55.2432064,308 66.5318591,308 L199.994472,308 L333.468141,308 C344.756794,308 354,298.762553 354,287.480933 L354,136.554745 C354,125.273126 346.636393,121.615715 337.636429,128.433305 Z" id="Combined-Shape" fill="#EF5144"></path>
    </g>
</svg>