<?xml version="1.0" encoding="UTF-8"?>
<svg width="400px" height="400px" viewBox="0 0 400 400" version="1.1" xmlns="http://www.w3.org/2000/svg" xmlns:xlink="http://www.w3.org/1999/xlink">
    <!-- Generator: Sketch 52.6 (67491) - http://www.bohemiancoding.com/sketch -->
    <title>Instagram</title>
    <desc>Created with Sketch.</desc>
    <g id="Instagram" stroke="none" stroke-width="1" fill="none" fill-rule="evenodd">
        <path d="M399.891033,55 C399.963325,56.1888166 400,57.3870854 400,58.59375 L400,341.40625 L400,400 L341.40625,400 L58.59375,400 L0,400 L0,341.40625 L0,58.59375 L0,0 L58.59375,0 L341.40625,0 C342.275328,0 343.140051,0.0190242994 344.000024,0.0566782778 L344,0 L400,0 L400,55 L399.891033,55 Z M200.78125,304.6875 C258.938598,304.6875 306.25,257.376098 306.25,199.21875 C306.25,141.061402 258.938598,93.75 200.78125,93.75 C142.623902,93.75 95.3125,141.061402 95.3125,199.21875 C95.3125,257.376098 142.623902,304.6875 200.78125,304.6875 Z M317.96875,117.1875 C337.353516,117.1875 353.125,101.416016 353.125,82.03125 C353.125,62.6464844 337.353516,46.875 317.96875,46.875 C298.583984,46.875 282.8125,62.6464844 282.8125,82.03125 C282.8125,101.416016 298.583984,117.1875 317.96875,117.1875 Z M317.96875,70.3125 C324.435425,70.3125 329.6875,75.564575 329.6875,82.03125 C329.6875,88.497925 324.435425,93.75 317.96875,93.75 C311.502075,93.75 306.25,88.497925 306.25,82.03125 C306.25,75.564575 311.502075,70.3125 317.96875,70.3125 Z M200.78125,117.1875 C246.008301,117.1875 282.8125,153.991699 282.8125,199.21875 C282.8125,244.445801 246.008301,281.25 200.78125,281.25 C155.554199,281.25 118.75,244.445801 118.75,199.21875 C118.75,153.991699 155.554199,117.1875 200.78125,117.1875 Z" id="Combined-Shape" fill="#EF5144" fill-rule="nonzero"></path>
    </g>
</svg>