<?xml version="1.0" encoding="UTF-8"?>
<svg width="400px" height="400px" viewBox="0 0 400 400" version="1.1" xmlns="http://www.w3.org/2000/svg" xmlns:xlink="http://www.w3.org/1999/xlink">
    <!-- Generator: Sketch 52.6 (67491) - http://www.bohemiancoding.com/sketch -->
    <title>Medium</title>
    <desc>Created with Sketch.</desc>
    <g id="Medium" stroke="none" stroke-width="1" fill="none" fill-rule="evenodd">
        <path d="M0,0 L400,0 L400,400 L0,400 L0,0 Z M98.5,257.5 L67.5,296 L67.5,301.575481 L146.5,301.575481 L146.5,296 L114.5,257.5 L114.5,152.5 L182.5,301.575481 L191,301.575481 L248.5,152.5 L248.5,273 L225.5,296 L225.5,301.575481 L330,301.575481 L330,296 L307,273 L307,120 L330,98.5 L330,93 L257,93 L205,221.5 L146.5,93.75 L71,93.75 L71,98.5 L98.5,131.5 L98.5,257.5 Z" id="Combined-Shape" fill="#EF5144"></path>
    </g>
</svg>