<?xml version="1.0" encoding="UTF-8"?>
<svg width="400px" height="400px" viewBox="0 0 400 400" version="1.1" xmlns="http://www.w3.org/2000/svg" xmlns:xlink="http://www.w3.org/1999/xlink">
    <!-- Generator: Sketch 52.6 (67491) - http://www.bohemiancoding.com/sketch -->
    <title>Twitter</title>
    <desc>Created with Sketch.</desc>
    <g id="Twitter" stroke="none" stroke-width="1" fill="none" fill-rule="evenodd">
        <path d="M325.000257,0 L400,0 L400,73.7127371 L399.989208,73.7127371 C399.996402,74.1408746 400.000009,74.5698862 400,74.999743 L400,325.000257 C400,325.430114 399.996385,325.859125 399.989183,326.287263 L400,326.287263 L400,400 L325.000257,400 L74.999743,400 L0,400 L0,326.287263 L0.0108168416,326.287263 C0.00361519465,325.859125 0,325.430114 0,325.000257 L0,74.999743 C0,74.5698862 0.00361519465,74.1408746 0.0108168416,73.7127371 L0,73.7127371 L0,0 L74.999743,0 L325.000257,0 Z M299.500608,155.099909 C309.124963,148.200111 317.500118,139.524786 324.099747,129.675097 C315.274748,133.57484 305.749901,136.250054 295.824553,137.42524 C305.999905,131.325621 313.799392,121.675771 317.474624,110.175558 C307.949777,115.800662 297.399417,119.900245 286.199375,122.125615 C277.20003,112.550602 264.399629,106.575985 250.249696,106.575985 C223.049357,106.575985 200.999607,128.626558 200.999607,155.801403 C200.999607,159.65098 201.423957,163.425721 202.274302,167.026117 C161.349203,164.975914 125.049189,145.376045 100.774069,115.576152 C96.5494838,122.850957 94.1242745,131.300949 94.1242745,140.325787 C94.1242745,157.400939 102.824271,172.476053 116.024351,181.301052 C107.949366,181.025554 100.37439,178.825677 93.7245961,175.125773 L93.7245961,175.750785 C93.7245961,199.600733 110.699417,219.475278 133.224505,224.025527 C129.099428,225.150548 124.749841,225.725394 120.249758,225.725394 C117.049863,225.725394 113.999642,225.425224 110.974915,224.875049 C117.249702,244.424753 135.425203,258.675017 156.974944,259.074695 C140.125126,272.274775 118.900226,280.149921 95.8249639,280.149921 C91.8495614,280.149921 87.9251466,279.899916 84.0747464,279.450072 C105.874492,293.42566 131.749971,301.575481 159.549827,301.575481 C250.125516,301.575481 299.650281,226.574916 299.650281,161.475027 L299.500608,155.099909 Z" id="Combined-Shape" fill="#EF5144" fill-rule="nonzero"></path>
    </g>
</svg>