<?xml version="1.0" encoding="utf-8"?>
<svg version="1.1" id="Layer_1" xmlns="http://www.w3.org/2000/svg" xmlns:xlink="http://www.w3.org/1999/xlink" x="0px" y="0px"
	 viewBox="0 0 436.6 62.1" style="enable-background:new 0 0 436.6 62.1;" xml:space="preserve">
<g>
	<path d="M69.6,61.9c-4.7,0-13.3,0-20.9,0c-0.5,0-0.9-0.1-1.3-0.7c-1.1-2.4-2-4.5-3-6.8H23.6c-1.2,2.5-1.8,4.4-2.9,6.5
		c-0.4,0.8-0.5,1-1.8,1c-6.4,0-11.6,0-18.3,0c-0.7,0-0.9-0.4-0.4-1.2C11.2,41.2,23.2,18,32.5,0.6c0.2-0.4,1.2-0.4,2.1-0.4
		c1.1,0,2.1,0,2.3,0.4C47.3,19.4,58.9,41,70,60.6C70.6,61.9,70.6,61.9,69.6,61.9z M35.6,32.1c-0.8-1.9-1.4-3.6-1.4-3.6
		s-0.6,1.7-1.4,3.6c-1.6,3.8-4,9.1-4,9.1h10.8C39.5,41.2,37.3,35.8,35.6,32.1z"/>
	<path d="M145.5,61.9c-5.9,0-12.3,0-18.6,0c-0.7,0-0.8-0.3-0.8-0.7l-0.8-23.2c0,0-9.9,8.2-13.6,11.1c-0.3,0.3-0.6,0.4-0.8,0.4
		c-0.2,0-0.3-0.1-0.8-0.4c-4-3.2-12.5-11.1-12.5-11.1L97,60.6c0,1.2-0.2,1.2-1.2,1.2c-6.2,0-10.5,0-16.3,0c-0.9,0-0.9-0.2-0.9-1.2
		c0.2-17.7,1.1-41.4,2-59.4c0-0.6,0.1-0.8,0.3-0.9c0.2-0.2,0.4-0.1,1,0.3c10,7.3,25.4,20.3,29.6,24.1c4.4-3.7,20.3-17.1,30.6-24.5
		c0.5-0.4,0.8-0.5,1-0.4c0.2,0.1,0.3,0.3,0.3,0.9c1.4,23.3,2.1,38.5,2.8,60C146.1,61.4,146.2,61.9,145.5,61.9z"/>
	<path d="M193,47.1c-2.9,0.3-11,0.4-11,0.4s0,6.6,0,13.5c0,0.7-0.1,0.8-0.9,0.8c-6.2,0-13.2,0-19,0c-0.9,0-0.9,0.1-0.9-0.8
		c0-23,0-37.5,0-58.8c0-0.9,0.4-0.8,0.9-0.8h29.7c14.2,0,23.4,9.4,23.4,23.2C215.2,39.2,206.7,45.7,193,47.1z M186.1,17.1H182v14.7
		h4.3c5.6,0,7.8-3.3,7.8-7.3C194.1,20.2,191.9,17.1,186.1,17.1z"/>
	<path d="M270.5,61.9c-6.2,0-35.9,0-41.7,0c-0.9,0-0.9,0.1-0.9-0.8c0-23,0-37.5,0-58.8c0-0.9,0-0.8,0.9-0.8c5.8,0,12.8,0,19,0
		c0.8,0,0.9,0.1,0.9,0.8c0,7,0,43.1,0,43.1h21.7c0.8,0,1,0.2,1,0.9c0,3.5,0,7.9,0,14.9C271.4,61.8,271.3,61.9,270.5,61.9z"/>
	<path d="M302,61.9c-6.2,0-13.8,0-19.7,0c-0.9,0-0.9,0.1-0.9-0.8c0-23,0-37.5,0-58.8c0-0.9,0-0.8,0.9-0.8c5.9,0,13.5,0,19.7,0
		c0.8,0,0.9,0.1,0.9,0.8c0,13.8,0,44.8,0,58.8C302.9,61.8,302.8,61.9,302,61.9z"/>
	<path d="M363.2,16.3h-23.3V28h20.9c0.8,0,0.7,0.4,0.7,1.1c0,3.7,0,9.5,0,13.7c0,0.8,0.1,0.9-0.7,0.9h-20.9c0,0,0,10.4,0,16.9
		c0,1-0.1,1.2-0.8,1.2H320c-0.8,0-0.9,0.1-0.9-1.2c0-16.9,0-38.3,0-57.9c0-1.2,0-1.2,0.9-1.2h43.2c0.8,0,0.7,0.2,0.7,0.9
		c0,3.9,0,9.7,0,13.2C363.9,16.2,364,16.3,363.2,16.3z"/>
	<path d="M416,42.6v18c0,1.2,0,1.2-1,1.2c-5.9,0-14,0-19.8,0c-0.6,0-0.6-0.1-0.6-1.2V44.2c0,0-14.1-24.2-23.6-41.5
		c-0.6-1.2-0.5-1.2,0.5-1.2H394c0.7,0,0.9,0,1.5,1.4c3.3,7.5,9.9,21.8,9.9,21.8s5.8-14.8,8.5-22.4c0.3-0.8,0.3-0.9,1.3-0.9h20.2
		c1.2,0,1,0.1,0.5,1.2C427.5,20,416,42.6,416,42.6z"/>
</g>
</svg>
