<svg version="1.1" xmlns="http://www.w3.org/2000/svg" xmlns:xlink="http://www.w3.org/1999/xlink" x="0px" y="0px" viewBox="0 0 120 19.4" style="enable-background:new 0 0 120 19.4;" xml:space="preserve">
<style type="text/css">
	.st0{fill:#95BA1F;}
	.st1{fill:#4d4d4d;}
</style>
                        <g id="XMLID_34_">
                        <path id="XMLID_35_" class="st0" d="M23.6,18h-2.6v-3h2.6c1.5,0,2.8-1.3,2.8-2.8c0-1.5-1.3-2.8-2.8-2.8h-0.5
                    c-0.2,4.7-4.2,8.5-9,8.5H5.7C2.6,18,0,15.4,0,12.2c0-3.2,2.6-5.7,5.7-5.7h13.9c-1-2.1-3.1-3.5-5.5-3.5c-1.9,0-3.6,0.9-4.8,2.3
                    L8.4,6.5L6.1,4.6L7,3.5C8.7,1.3,11.3,0,14.1,0c4.1,0,7.6,2.7,8.6,6.5h0.8c3.2,0,5.7,2.6,5.7,5.7C29.3,15.4,26.7,18,23.6,18z
                    M5.7,9.5C4.2,9.5,3,10.7,3,12.2C3,13.8,4.2,15,5.7,15h8.4c3.2,0,5.8-2.5,6-5.6H5.7z"></path>
                        </g>
                        <path id="XMLID_31_" class="st1" d="M46.1,13.9H41l-1.3,4.2h-2.4l4.9-14.8h2.7l4.9,14.8h-2.5L46.1,13.9z M45.6,12.1l-0.6-2
                    c-0.5-1.6-0.9-3.3-1.4-4.9h-0.1c-0.4,1.7-0.9,3.3-1.4,4.9l-0.6,2H45.6z"></path>
                        <path id="XMLID_28_" class="st1" d="M51.8,3.4h4.5c3.3,0,5.6,1.1,5.6,4.5c0,3.2-2.4,4.7-5.6,4.7h-2.2v5.6h-2.3V3.4z M56.1,10.7
                    c2.4,0,3.5-0.9,3.5-2.9c0-1.9-1.2-2.6-3.6-2.6h-1.9v5.4H56.1z"></path>
                        <path id="XMLID_26_" class="st1" d="M64.8,3.4h2.3v14.8h-2.3V3.4z"></path>
                        <g id="XMLID_16_">
                        <path id="XMLID_7_" class="st1" d="M80,15.7c-1.1,1.2-2.2,1.8-3.6,1.8c-3.1,0-5.1-2.6-5.1-6.7c0-4.1,2-6.6,5.2-6.6
                        C78,4.2,79,5,79.5,5.7l0.1,0.2L80.4,5l-0.1-0.1c-0.5-0.5-1.7-1.8-3.9-1.8c-3.9,0-6.3,3-6.3,7.7c0,4.7,2.5,7.8,6.2,7.8
                        c1.8,0,3.2-0.7,4.4-2.1l0.1-0.1l-0.7-0.8L80,15.7z"></path>
                        <path id="XMLID_6_" class="st1" d="M85.1,17.5c-0.2,0-0.3,0-0.4,0c-0.1,0-0.3,0-0.3-0.5V2h-1.1V17c0,1.4,0.7,1.6,1.3,1.6
                        c0.3,0,0.4,0,0.6-0.1l0.3-0.1l-0.2-1L85.1,17.5z"></path>
                        <path id="XMLID_21_" class="st1" d="M92.5,7.1c-2.9,0-4.9,2.4-4.9,5.8c0,3.4,2,5.7,4.9,5.7c2.9,0,4.9-2.4,4.9-5.7
                        C97.4,9.5,95.3,7.1,92.5,7.1z M92.5,17.5c-2.2,0-3.7-1.9-3.7-4.7c0-2.7,1.6-4.7,3.7-4.7c2.2,0,3.8,2,3.8,4.7
                        C96.2,15.6,94.6,17.5,92.5,17.5z"></path>
                        <path id="XMLID_3_" class="st1" d="M106.9,15.4c-1.4,1.6-2.3,2.1-3.4,2.1c-1.1,0-2.4-0.4-2.4-3.3V7.5h-0.9v6.9c0,2.9,1,4.2,3.3,4.2
                        c1.5,0,2.6-0.9,3.4-1.8l0.1,1.5h1V7.5h-1.1V15.4z"></path>
                        <path id="XMLID_17_" class="st1" d="M118.9,2v4.6l0,1.6c-1-0.7-1.8-1.1-3.1-1.1c-2.9,0-4.9,2.4-4.9,5.8c0,3.6,1.7,5.7,4.6,5.7
                        c1.2,0,2.4-0.5,3.4-1.5l0.1,1.1h1V2H118.9z M118.9,9.5v6.3c-1.2,1.2-2.2,1.7-3.3,1.7c-2.1,0-3.5-1.8-3.5-4.7c0-2.7,1.7-4.7,3.8-4.7
                        C116.9,8.1,117.8,8.5,118.9,9.5z"></path>
                    </g>
                </svg>