<svg height="auto" viewBox="0 0 150 32" xmlns="http://www.w3.org/2000/svg" xmlns:xlink="http://www.w3.org/1999/xlink" fill="#F47D31">
    <path d="M148.383 12.163h-.256v-.446c.177.008.383-.026.509.042.126.075.099.216.068.29-.041.076-.094.094-.181.107a1.41 1.41 0 0 1-.14.007zm.202.175a.459.459 0 0 0 .241-.093c.19-.183.142-.411.063-.547-.142-.175-.294-.156-.437-.166h-.54v1.44h.215v-.624h.247l.374.625h.24l-.403-.635zM41.247 12.088c0-.3.242-.546.527-.546.297 0 .54.247.54.546v3.739h5.455v-3.74c0-.298.243-.545.54-.545.285 0 .527.247.527.546v8.53a.54.54 0 0 1-.527.546.543.543 0 0 1-.54-.545v-3.79h-5.455v3.79c0 .3-.243.545-.54.545a.54.54 0 0 1-.527-.545v-8.531zM53.937 20.553v-8.399c0-.3.245-.54.527-.54h5.874a.487.487 0 1 1 0 .975h-5.334v3.238h4.727c.272 0 .486.228.486.486a.485.485 0 0 1-.486.487h-4.727v3.319h5.403c.27 0 .486.218.486.489a.485.485 0 0 1-.486.487h-5.943a.54.54 0 0 1-.527-.542M71.517 17.613l-2.173-4.85-2.174 4.85h4.347zm-6.685 2.777l3.836-8.413c.134-.295.338-.472.676-.472h.054c.324 0 .54.177.661.472l3.835 8.401c.04.096.068.189.068.27 0 .284-.23.516-.514.516-.255 0-.431-.177-.526-.393l-.985-2.183h-5.185l-.988 2.207c-.094.232-.27.369-.514.369a.487.487 0 0 1-.485-.49c0-.08.013-.174.067-.284zM81.71 20.108c2.39 0 3.916-1.629 3.916-3.728v-.028c0-2.099-1.526-3.751-3.915-3.751h-2.215v7.507h2.215zm-3.28-7.954c0-.3.241-.54.525-.54h2.756c2.97 0 5.024 2.046 5.024 4.712v.026c0 2.672-2.054 4.743-5.024 4.743h-2.756a.538.538 0 0 1-.526-.542v-8.399zM90.943 19.957a.477.477 0 0 1-.201-.408c0-.296.23-.525.513-.525.136 0 .256.053.324.119.89.76 1.782 1.127 2.985 1.127 1.268 0 2.107-.679 2.107-1.613v-.028c0-.88-.473-1.38-2.458-1.8-2.174-.477-3.174-1.179-3.174-2.738v-.026c0-1.49 1.31-2.589 3.105-2.589 1.244 0 2.148.313 3.012.937.108.08.23.23.23.432 0 .285-.23.514-.513.514a.483.483 0 0 1-.311-.096c-.796-.58-1.567-.825-2.444-.825-1.23 0-2.013.679-2.013 1.53v.028c0 .894.488 1.397 2.566 1.84 2.108.463 3.08 1.236 3.08 2.685v.027c0 1.627-1.35 2.683-3.227 2.683-1.378 0-2.527-.436-3.58-1.274M105.755 16.774c1.567 0 2.594-.842 2.594-2.087v-.027c0-1.356-1.012-2.06-2.539-2.06h-2.39v4.174h2.335zm-3.403-4.62c0-.3.243-.54.527-.54h3.011c2.135 0 3.539 1.136 3.539 3.005v.026c0 2.047-1.702 3.105-3.713 3.105h-2.297v2.869c0 .3-.243.545-.54.545a.541.541 0 0 1-.527-.545v-8.465zM119.027 17.613l-2.173-4.85-2.174 4.85h4.347zm-6.683 2.777l3.835-8.413c.136-.295.338-.472.675-.472h.056c.324 0 .538.177.66.472l3.835 8.401c.041.096.067.189.067.27a.514.514 0 0 1-.513.516c-.256 0-.431-.177-.526-.393l-.986-2.183h-5.186l-.985 2.207c-.095.232-.27.369-.514.369a.486.486 0 0 1-.485-.49c0-.08.013-.174.067-.284zM125.034 16.38v-.028c0-2.681 2-4.902 4.782-4.902 1.526 0 2.498.5 3.376 1.233a.58.58 0 0 1 .215.434.55.55 0 0 1-.54.529.644.644 0 0 1-.351-.124c-.729-.652-1.553-1.084-2.715-1.084-2.093 0-3.66 1.707-3.66 3.888v.026c0 2.196 1.581 3.918 3.66 3.918 1.175 0 2-.406 2.809-1.153a.492.492 0 0 1 .34-.15c.268 0 .51.244.51.515 0 .165-.08.3-.173.382-.932.852-1.959 1.394-3.512 1.394-2.728 0-4.74-2.154-4.74-4.878M137.847 20.553v-8.399c0-.3.243-.54.527-.54h5.874c.27 0 .485.214.485.486 0 .27-.215.488-.485.488h-5.334v3.239h4.727a.486.486 0 1 1 0 .973h-4.727v3.319h5.402c.27 0 .486.218.486.489a.484.484 0 0 1-.486.487h-5.942a.539.539 0 0 1-.527-.542"/>

      <path d="M31.857 15.857c.37 5.183-2.028 8.123-3.476 10.18-2.252 2.38-5.103 5.627-12.347 5.808-6.146.243-9.168-2.468-11.7-4.823C1.028 23.378.166 21.222 0 15.857c-.015-3.288 1.247-6.572 3.459-9.46C6.559 2.009 11.484.54 16.034.235c4.773-.186 8.57 2.23 11.165 4.831 3.317 3.51 4.336 6.523 4.658 10.792"/>

</svg>
