<svg xmlns="http://www.w3.org/2000/svg" xmlns:xlink="http://www.w3.org/1999/xlink" width="79" height="35" viewBox="0 0 79 35">
    <defs>
        <path id="a" d="M69.699 32.124c-.874 1.02-2.647.867-2.939-.625-.139-.74.064-1.632.38-2.257.71-1.365 1.989-2.487 3.445-2.857 0 .842 0 1.951-.025 2.806-.026.944-.228 2.18-.861 2.933zm-14.096-20.16c.81.05 1.457.943 1.241 2.46-.265 1.798-1.747 3.724-3.432 4.157-.266-.637-.392-1.938-.24-3.213.278-2.334 1.469-3.456 2.431-3.405zM24.031 20.66c-1.254-1.684-1.203-3.724-.81-5.662 1.228 2.78 4.508 3.265 6.534 2.856-.266 2.143-1.38 4.017-3.305 4.017-1.077.013-1.862-.459-2.419-1.211zm4.432-7.855c.618.635 1.035 1.56 1.226 2.589l.003.012-.003-.012c-1.417.203-2.784-.065-3.784-.842-.722-.574-.912-1.48-.608-2.028.443-.79 1.773-1.135 3.166.28zM9.163 2.348c.874-1.033 2.647-.867 2.925.625.14.727-.05 1.62-.367 2.244-.71 1.365-1.988 2.487-3.445 2.87 0-.855-.013-1.952.026-2.806.025-.944.228-2.193.861-2.933zM73.815 24.46c.012-4.438 0-8.875 0-13.313 0-1.097-3.128-1.16-3.23-.051 0 .446 0 .905-.012 1.352-.05 2.435-1.203 6.988-3.116 8.645-.519.447-.988.472-1.317.23-.291-.217-.367-.765-.367-1.237v-.612c0-2.742.013-5.573 0-8.314 0-1.097-3.128-1.174-3.23-.064 0 2.55 0 5.024.013 7.55-2.064 3.314-6.839 4.87-8.814.943 1.228.471 2.532.242 3.419-.23 1.532-.816 2.697-2.168 2.925-4.31.216-6.274-8.016-7.128-9.853-.74a10.765 10.765 0 0 0-.43 3.303 8.195 8.195 0 0 0 .62 2.908c-.67.663-1.443 1.122-2.216 1.096-1.013-.038-.911-1.3-.911-2.027v-4.782c0-.574 0-1.148-.051-1.709-.165-1.67-1.431-2.997-3.204-3.112-2.52-.038-4.294 2.321-5.167 4.91-.013-1.441 0-2.295 0-3.75-.013-1.083-2.913-1.16-3.243-.012-.417 1.454-1.785 2.589-3.064 3.265-.393-.957-.887-1.837-1.57-2.589-2.812-3.073-6.877-2.512-9.259.025-1.887 2.015-2.456 5.65-1.443 8.2-.747.893-1.773 1.62-2.685 1.581-.456-.025-.71-.293-.823-.714-.114-.408-.089-.892-.089-1.313 0-1.594-.013-3.188 0-4.782 0-.574 0-1.148-.05-1.709-.165-1.67-1.14-3.01-2.99-3.124-3.178-.14-4.457 2.958-5.395 5.508v-5.444a16.95 16.95 0 0 0 1.963-.472c7.004-2.028 5.649-9.437.431-9.564-3.52-.077-5.61 2.257-5.585 5.802v2.295C3.806 7.908 2.856 6.25 2.324 5.18l-.228-.497a.332.332 0 0 0-.405-.204c-.14.038-.279.089-.418.14-.507.23-.925.625-1.127 1.148-.367.93 0 1.925.645 2.626C1.855 9.515 3.553 9.922 5.047 10c-.013 4.425 0 8.837 0 13.262.05.625.9.79 1.393.803.52.013 1.646-.153 1.66-.867l.037-.548c.215-1.964 2.09-9.819 4.458-9.832.582 0 .874.383.874.957v7c0 2.168 1.215 3.622 3.42 3.622 1.709.013 3.254-1.237 4.178-2.793.127.166.228.345.367.498a6.574 6.574 0 0 0 5.003 2.333c4.42-.063 6.687-3.889 6.522-7.65 1.026-.575 1.95-1.314 2.66-2.232v8.71c.05.624.937.79 1.431.802.52.013 1.646-.153 1.646-.867l.051-.548.152-1.454c.228-2.027 1.735-8.365 4.306-8.378.57 0 .861.383.861.957v7c0 2.168 1.216 3.622 3.432 3.622 1.533.013 2.926-.995 3.863-2.32 1.24 1.542 3.14 2.448 5.42 2.448 2.672 0 4.61-1.186 5.902-3.1.291 1.646 1.165 2.947 3.305 2.972 2.216.013 3.9-3.099 4.597-4.973v5.011c-.658.115-1.304.28-1.95.472-7.003 2.015-5.661 9.436-.443 9.551 3.533.09 5.61-2.244 5.597-5.789 0-.6-.012-1.721 0-2.308 1.254.191 2.217 1.862 2.736 2.933.088.166.165.331.228.497.076.166.24.242.418.204.14-.038.278-.089.405-.153.52-.23.937-.612 1.14-1.147.367-.931 0-1.913-.659-2.615-1.05-1.135-2.76-1.53-4.242-1.62z"/>
    </defs>
    <g fill="none" fill-rule="evenodd">
        <mask id="b" fill="#fff">
            <use xlink:href="#a"/>
        </mask>
        <use fill="#FFF" xlink:href="#a"/>
        <g fill="#FF7227" mask="url(#b)">
            <path d="M0 0h79v35H0z"/>
        </g>
    </g>
</svg>
