<svg width="600" height="100" viewBox="0 0 600 100" fill="none" xmlns="http://www.w3.org/2000/svg">
<path d="M7.0269 27.6699L20.321 24.4259C25.2588 23.2809 34.7546 22.136 34.7546 15.2662V9.54136C34.7546 2.28993 23.9294 0 15.5731 0C10.0656 0 -1.15915e-05 2.67158 -1.15915e-05 9.54136V30.7232C-1.15915e-05 38.9287 10.6353 41.7912 17.4723 41.7912C23.1697 41.7912 26.7781 41.2187 30.7664 39.5012C35.3244 37.7838 32.8554 31.2957 28.4874 32.6314C26.2084 33.3948 23.1697 34.5397 17.4723 34.5397C12.7244 34.5397 9.30587 32.8223 7.2168 30.5323V27.6699H7.0269ZM7.0269 10.4955C9.30589 8.20557 12.3445 7.06061 15.5731 7.06061C22.0302 7.06061 25.4487 8.01474 27.7277 10.3047V14.8845C26.7781 15.6478 19.5613 17.1744 18.8017 17.1744L7.2168 19.846V10.4955H7.0269Z" transform="translate(262.711 46.1929)" fill="#333333"></path>
<path d="M17.2823 41.7912C10.6353 41.7912 5.79577e-06 38.9287 5.79577e-06 31.4865V8.58722C5.79577e-06 2.67158 10.0655 0 15.1933 0C22.2202 0 34.3748 1.90827 34.3748 8.58722V14.8845C34.3748 19.6552 28.4874 21.3726 21.8403 22.7084C21.2706 22.8993 20.5109 22.8993 19.9412 23.0901L5.50755 26.525L4.17815 26.9066V32.2498L4.7479 32.8223C6.83698 34.9214 10.6353 37.593 17.2823 37.593C23.3596 37.593 26.9681 36.448 29.437 35.6847L29.8168 35.303C30.1966 35.1122 30.3865 35.1122 30.5764 35.1122C31.7159 35.1122 32.2857 36.0663 32.4756 37.0205C32.6655 37.593 32.4756 38.7379 31.1462 39.3104C26.5882 41.0278 22.9798 41.7912 17.2823 41.7912ZM15.1933 4.1982C11.205 4.1982 7.40672 5.72481 4.7479 8.39639L4.17815 8.96888V22.3268L6.26723 21.7543L18.9916 18.8919C21.6504 18.3194 27.9176 16.9836 29.437 16.0295L30.1966 15.457V8.77805L29.8168 8.20557C26.968 5.34316 22.7899 4.1982 15.1933 4.1982Z" transform="translate(354.633 46.1929)" fill="#555555"></path>
<path d="M4.93781 9.54136C2.27899 9.54136 1.44894e-06 7.44226 1.44894e-06 4.77068C1.44894e-06 2.0991 2.27899 0 4.93781 0C7.59663 0 9.68571 2.0991 9.68571 4.77068C9.68571 7.44226 7.40672 9.54136 4.93781 9.54136ZM1.32941 56.4848V18.8919C1.32941 16.9836 2.84874 15.2662 4.93781 15.2662C6.83697 15.2662 8.54621 16.9836 8.54621 18.8919V56.4848H1.32941V56.4848Z" transform="translate(93.3047 30.9263)" fill="#333333"></path>
<path d="M23.7395 8.39639C22.0302 7.82391 19.7512 7.44226 17.4723 7.44226C12.9143 7.44226 9.87562 8.77805 7.2168 10.4955V41.4095H-5.79577e-06V10.1138C-5.79577e-06 2.48075 10.6353 -7.27948e-07 17.4723 -7.27948e-07C20.5109 -7.27948e-07 30.3865 0.381654 28.2975 5.91564C27.7277 8.01474 25.6386 8.96887 23.7395 8.39639Z" transform="translate(149.332 46.0024)" fill="#333333"></path>
<path d="M17.4723 57.2481C10.6353 57.2481 -2.89789e-06 54.1949 -2.89789e-06 46.1802V26.525C-2.89789e-06 18.3194 9.87563 15.457 16.7126 15.457C19.9412 15.457 24.3092 16.0295 27.7277 17.3653V-7.27948e-07H34.9445V45.9893C34.9445 54.1949 24.3092 57.2481 17.4723 57.2481ZM27.7277 26.525C25.4487 24.235 21.4605 22.5176 16.7126 22.5176C12.1546 22.5176 9.30588 24.0442 7.02689 26.525V46.1802C9.30588 48.4701 12.7244 50.1875 17.2823 50.1875C22.0302 50.1875 25.4487 48.4701 27.5378 46.1802V26.525H27.7277Z" transform="translate(222.254 30.7351)" fill="#333333"></path>
<path d="M22.4101 56.294C15.763 56.294 5.12772 53.4316 5.12772 45.9893V20.0368H2.08908C0.949585 20.0368 -5.79577e-06 19.0827 -5.79577e-06 17.9378C-5.79577e-06 16.7928 0.949585 15.8387 2.08908 15.8387H5.12772V2.0991C5.12772 0.954136 6.07731 0 7.2168 0C8.3563 0 9.30589 0.954136 9.30589 2.0991V15.8387H24.4992V20.0368H9.30589V46.7526L9.87561 47.3251C11.9647 49.4242 15.9529 52.0958 22.4101 52.0958C23.5496 52.0958 24.4992 53.0499 24.4992 54.1949C24.4992 55.3399 23.7395 56.294 22.4101 56.294Z" transform="translate(391.473 30.9263)" fill="#555555"></path>
<path d="M41.1466 41.982C40.7667 41.982 39.8172 41.982 39.4373 40.6462L29.1819 12.2129L27.4726 7.63308L25.7634 12.2129L15.5079 40.6462C15.1281 41.7911 13.9886 41.982 13.7987 41.982C13.4188 41.982 12.2794 41.7911 11.8995 40.4554L0.124741 2.67158C-0.0651746 2.0991 -0.065163 1.52662 0.314669 0.954135C0.6945 0.381654 1.45415 0.190827 2.0239 0.190827C2.59365 0.190827 3.35333 0.381656 3.73316 1.52662L12.4693 29.0057L13.9886 33.9672L25.5735 1.52662C25.9533 0.76331 26.5231 -7.27948e-07 27.4726 -7.27948e-07C28.4222 -7.27948e-07 29.1819 0.76331 29.3718 1.52662L40.9567 33.9672L51.2121 1.33579C51.592 0.190828 52.3516 -7.27948e-07 52.9214 -7.27948e-07C53.681 -7.27948e-07 54.2508 0.381653 54.6306 0.763307C55.0104 1.14496 55.0104 1.71745 54.8205 2.48075L43.0457 40.2645C42.6659 41.7911 41.5264 41.982 41.1466 41.982Z" transform="translate(420.781 46.0024)" fill="#555555"></path>
<path d="M17.2823 41.982C10.6353 41.982 1.15915e-05 39.1196 1.15915e-05 31.6773V10.3047C1.15915e-05 2.86241 10.6353 -7.27948e-07 17.2823 -7.27948e-07C23.9294 -7.27948e-07 34.5647 2.86241 34.5647 10.3047V31.6773C34.5647 39.1196 23.9294 41.982 17.2823 41.982ZM17.2823 4.1982C11.9647 4.1982 7.78656 5.91564 4.74791 8.96888L4.36805 9.54136V32.2498L4.93781 32.8223C7.02688 35.1122 11.0151 37.5929 17.4723 37.5929C24.1193 37.5929 27.9176 34.9214 30.0067 32.8223L30.3865 32.2498V9.73218L30.0067 9.1597C27.7277 6.86978 23.9294 4.1982 17.2823 4.1982Z" transform="translate(478.641 46.0024)" fill="#555555"></path>
<path d="M4.17814 41.2187H2.31831e-05V9.1597C2.31831e-05 1.90827 11.205 -7.27948e-07 17.2823 -7.27948e-07C22.2201 -7.27948e-07 26.3983 0.954137 27.3479 2.48075C27.5378 2.86241 27.7277 3.24406 27.3479 4.1982C27.158 5.15233 26.3983 5.72481 25.4487 5.72481C25.2588 5.72481 24.879 5.72481 24.6891 5.53399C22.2202 4.77068 19.7512 4.38903 17.2823 4.38903C11.3949 4.38903 7.78654 6.10647 5.12772 8.01474L4.36806 8.58722V41.2187" transform="translate(519.668 46.0024)" fill="#555555"></path>
<path d="M36.2739 56.4848H30.5764L13.484 36.6388L12.3446 35.303L11.0151 36.448L4.74792 41.982L4.17814 42.5545V56.4848H2.31831e-05V2.0991C2.31831e-05 0.954136 0.949556 -7.27948e-07 2.08905 -7.27948e-07C3.22855 -7.27948e-07 4.17814 0.954136 4.17814 2.0991V37.2113L7.02687 34.7305L28.6773 15.8387C29.0571 15.457 29.6269 15.2662 30.0067 15.2662C30.7664 15.2662 31.526 15.8387 31.9059 16.7928C32.0958 17.3653 32.0958 18.1286 31.3361 18.8919L17.0924 31.2957L15.763 32.4406L16.9025 33.7764L36.2739 56.4848Z" transform="translate(551.953 30.7351)" fill="#555555"></path>
<path d="M27.7277 14.1212L14.4336 17.3653C9.49579 18.5102 2.89789e-06 19.6552 2.89789e-06 26.525V32.2498C2.89789e-06 39.5012 10.8252 41.7912 19.1815 41.7912C24.6891 41.7912 34.7546 39.1196 34.7546 32.2498V11.068C34.7546 2.86241 24.1193 0 17.2823 0C11.5849 0 7.97646 0.572483 3.98823 2.28993C-0.569748 4.00737 1.89915 10.4955 6.26722 9.1597C8.54621 8.39639 11.5849 7.25143 17.2823 7.25143C22.0302 7.25143 25.4487 8.96888 27.5378 11.2588V14.1212H27.7277ZM27.7277 31.1048C25.4487 33.3948 22.2202 34.5397 19.1815 34.5397C12.7244 34.5397 9.30587 33.5856 7.02688 31.2957V26.7158C7.97646 25.9525 15.1933 24.4259 15.9529 24.4259L27.5378 21.7543V31.1048H27.7277Z" transform="translate(181.051 46.1929)" fill="#333333"></path>
<path d="M16.9025 7.44226V53.0499C16.9025 54.9582 18.4218 56.4848 20.321 56.4848C22.2202 56.4848 23.7395 54.9582 23.7395 53.0499V7.44226H42.3512V0H0V7.44226H16.9025Z" transform="translate(107.176 30.9263)" fill="#333333"></path>
<path d="M36.8437 55.8546C37.9832 57.572 40.642 56.6179 40.642 54.7096V2.23215C40.642 1.08718 39.6924 0.133049 38.5529 0.133049C37.4134 0.133049 36.4638 1.08718 36.4638 2.23215V47.8398L3.79832 0.896358C2.65882 -0.821086 0 0.133049 0 2.04132V54.328C0 55.4729 0.949591 56.4271 2.08909 56.4271C3.22858 56.4271 4.17814 55.4729 4.17814 54.328V8.9111L36.8437 55.8546Z" transform="translate(308.484 30.6028)" fill="#555555"></path>
<path d="M7.59663 3.81654C7.59663 5.91564 5.88739 7.63309 3.79832 7.63309C1.70924 7.63309 0 5.91564 0 3.81654C0 1.71744 1.70924 0 3.79832 0C5.88739 0.190827 7.59663 1.71744 7.59663 3.81654ZM0.759652 3.81654C0.759652 5.53399 1.89915 6.86977 3.60839 6.86977C5.31763 6.86977 6.45713 5.53399 6.45713 3.81654C6.45713 2.0991 5.31763 0.763311 3.60839 0.763311C2.08906 0.954139 0.759652 2.28993 0.759652 3.81654ZM3.22859 5.91564H2.27901V2.0991C2.65885 2.0991 3.03865 1.90827 3.79832 1.90827C4.55798 1.90827 4.74792 2.0991 5.12775 2.0991C5.31767 2.28992 5.50755 2.48075 5.50755 2.86241C5.50755 3.24406 5.12773 3.62572 4.7479 3.81654C5.12773 4.00737 5.31763 4.1982 5.50755 4.77068C5.69746 5.34316 5.69748 5.53399 5.69748 5.72481H4.7479C4.55798 5.53399 4.55796 5.15233 4.36804 4.77068C4.36804 4.38902 3.98822 4.1982 3.60839 4.1982H3.22859V5.91564V5.91564ZM3.22859 3.62572H3.60839C4.17814 3.62572 4.55797 3.43489 4.55797 3.05323C4.55797 2.67158 4.36806 2.48075 3.79832 2.48075C3.6084 2.48075 3.41851 2.48075 3.22859 2.48075V3.62572Z" transform="translate(592.402 80.542)" fill="#555555"></path>
<path d="M12.3237 19.945C-6.98611 38.2078 0.642444 51.4244 6.84065 55.9901C30.4415 73.0515 69.5378 36.5257 48.7977 4.58337e-07C63.8164 38.2078 28.5344 67.7648 8.03261 53.3468C2.78798 49.7423 -5.55576 37.9675 12.3237 19.945Z" transform="translate(8.17969 22.3479)" fill="#F1AA48"></path>
<path d="M62.6885 0C69.1251 26.1928 42.9019 56.711 15.9635 46.6184C-4.5382 38.6884 -0.247133 19.7047 1.8984 16.1002L2.37518 15.3793C0.468044 18.9838 -2.63106 36.5257 16.9171 43.4944C40.7564 51.905 66.026 25.7122 62.6885 0Z" transform="translate(3.58203 43.2534)" fill="#F1AA48"></path>
<path d="M0 12.7359C0 15.139 2.86071 29.557 19.5482 34.8436C41.2419 41.572 66.5115 24.5107 68.657 0C65.3195 22.5883 42.1955 37.0063 21.4553 31.7197C4.52946 27.8749 0.238392 15.139 0 12.7359Z" transform="translate(0 63.6794)" fill="#F1AA48"></path>
<path d="M23.5542 0C61.9354 41.572 25.9381 78.0978 8.53548 69.4469C-6.00645 61.7573 7.82031 38.9287 27.1301 34.1227L27.6069 33.8824C7.58192 37.7272 -11.0127 62.9588 7.82031 73.2918C27.6069 82.4232 66.7032 43.7348 23.5542 0Z" transform="translate(13.3945)" fill="#F1AA48"></path>
</svg>