<svg width="220" height="45" viewBox="0 0 163 32" xmlns="http://www.w3.org/2000/svg"><title>logo</title><g id="â­-Final-Designs" fill="none" fill-rule="evenodd"><g id="mobile_Home" transform="translate(-20 -78)"><g id="logo" transform="translate(20 78)"><g id="Brandmark" fill="#D00865" fill-rule="nonzero"><path d="M0 16.543v-1.116C.305 6.87 7.585 0 16.492 0c9.1 0 16.502 7.17 16.502 15.985 0 8.817-7.403 15.988-16.502 15.988-8.907 0-16.187-6.87-16.492-15.43zm16.497 13.032c7.732 0 14.023-6.095 14.023-13.59 0-7.491-6.29-13.587-14.023-13.587S2.475 8.494 2.475 15.985c0 7.495 6.29 13.59 14.022 13.59zm7.02-20.381c1.35 0 2.466 1.079 2.466 2.398-.004 1.319-1.105 2.388-2.466 2.396-1.294.002-2.373-.957-2.483-2.206v-.384c.109-1.249 1.189-2.209 2.483-2.206v.002zm-7.028 0h2.466s.037.887 0 2.218v8.925c0 1.343-1.108 2.444-2.466 2.444h-2.466V11.633c0-1.342 1.11-2.44 2.466-2.44zm-4.54 11.002c0 .07.011.127.011.188 0 .064-.012.12-.012.184-.102 1.245-1.172 2.207-2.462 2.213-1.361 0-2.475-1.079-2.475-2.4 0-1.323 1.108-2.396 2.475-2.396 1.287.008 2.357.967 2.462 2.21z"></path></g><path d="M39 26.71l.24-2.245c.478.154 1.435.193 1.594.193 1.336 0 1.854-.948 1.854-2.11V9.155h2.552v13.393c0 2.4-1.196 4.452-4.406 4.452-.379 0-1.196-.135-1.834-.29zm16.462-6.368c1.376 0 2.652-1.007 2.652-2.555V9.155h2.551v8.632c0 2.98-2.412 4.897-5.203 4.897-2.811 0-5.223-1.916-5.223-4.897V9.155h2.591v8.632c0 1.548 1.256 2.555 2.632 2.555zM73.1 18.174l4.366-9.02h2.193l1.675 13.336h-2.552l-1.057-8.884-3.588 7.375h-2.034l-3.608-7.375-1.077 8.884h-2.552l1.695-13.335h2.153l4.386 9.02zm18.137-6.813h-2.99v4.18h2.91c1.316 0 1.934-1.083 1.934-2.07 0-.968-.578-2.11-1.854-2.11zm-5.543 11.13V9.154h5.583c3.05 0 4.366 2.148 4.366 4.316 0 2.168-1.316 4.277-4.366 4.277h-3.03v4.742h-2.553zM98.807 18.6h2.552c.06.987.897 1.877 2.372 1.877 1.376 0 2.213-.696 2.273-1.606.06-.871-.578-1.471-1.894-1.82l-1.695-.425c-2.99-.832-3.468-2.555-3.468-3.716 0-2.342 2.093-3.91 4.625-3.91 2.592 0 4.565 1.548 4.565 4.026h-2.552c0-1.065-.777-1.742-2.053-1.742-1.136 0-2.054.62-2.054 1.568 0 .387.16 1.18 1.635 1.529l1.695.484c3.09.832 3.848 2.496 3.748 4.064-.1 2.4-2.333 3.774-4.825 3.774-2.93 0-4.924-1.82-4.924-4.103zm12.754-7.18V9.154h10.307v2.264H118V22.49h-2.572V11.42h-3.867zm21.884 11.07l-1.256-3.232h-5.123l-1.256 3.232h-2.712l5.144-13.335h2.751l5.144 13.335h-2.692zM129.618 12l-1.695 5.09h3.43L129.617 12zm15.325-.639h-2.83v4.18h2.75c1.356 0 1.934-1.083 1.934-2.07 0-.968-.578-2.11-1.854-2.11zm1.017 6.29l3.509 4.84h-3.07l-3.23-4.743h-1.057v4.742h-2.552V9.155h5.503c3.03 0 4.386 2.148 4.386 4.316 0 1.897-1.037 3.813-3.49 4.18zm6.733-6.232V9.155H163v2.264h-3.868V22.49h-2.572V11.42h-3.867z" id="Jumpstart-Copy-3" fill="#2D2A3D"></path></g></g></g></svg>