<svg xmlns="http://www.w3.org/2000/svg" xmlns:xlink="http://www.w3.org/1999/xlink" width="559" height="146" viewBox="0 0 559 146">
    <defs>
        <path id="a" d="M47.958.042H.298v109.603h47.66V.042z"/>
        <path id="c" d="M16.97 16.456V.474H.905v15.982H16.97z"/>
    </defs>
    <g fill="none" fill-rule="evenodd">
        <g transform="translate(232.231 .493)">
            <mask id="b" fill="#fff">
                <use xlink:href="#a"/>
            </mask>
            <path fill="#1C70E1" d="M22.552 26.05c1.774-5.143 3.056-9.386 3.254-13.016.237-4.523-2.285-5.6-9.535-5.6h-1.523l1.341-5.127C27.754 2 38.371 1.246 47.958.04L19.756 87.73c-1.268 3.778-1.702 6.208-1.773 7.552-.102 1.835 1.036 3.318 2.855 3.318 3.321 0 9.133-5.134 14.496-14.937l3.685 1.795c-7.364 16.189-18.153 24.187-27.521 24.187-7.58 0-11.582-4.224-11.172-11.933.238-4.545 2.794-12.859 6.756-25.091l15.47-46.571z" mask="url(#b)"/>
        </g>
        <path fill="#1C70E1" d="M43.922 75.525c-1.644 2.485-2.806 5.973-5.246 10.425-7.357 16.189-18.137 24.19-27.502 24.19-7.548 0-11.548-4.227-11.144-11.936.222-4.545 2.79-12.855 6.756-25.09l15.47-46.572c1.777-5.143 3.066-9.386 3.247-13.012.247-4.527-2.272-5.603-9.528-5.603h-1.508L15.8 2.799c11.646-.305 22.278-1.06 31.865-2.263L19.447 88.223c-1.258 3.777-1.686 6.207-1.76 7.551-.102 1.835 1.045 3.321 2.846 3.321 3.324 0 8.372-5.134 13.743-14.94a79.287 79.287 0 0 1 7.768-13.422l1.878 4.792z"/>
        <path fill="#1C70E1" d="M59.321 76.744c5.65-20.872 12.85-31.464 20.71-31.464 3.632 0 6.053 2.74 5.843 6.65-.478 9.076-9.574 18.148-26.553 24.814zm30.13 10.268c-7.475 9.84-16.47 14.687-23.124 14.687-6.65 0-9.738-4.409-9.278-13.182.08-1.659.493-3.913 1.113-6.95 26.47-5.887 40.484-16.324 41.08-27.678.45-8.295-6.066-14.046-17.404-14.046-9.677 0-19.609 4.678-28.073 13.46-9.43 9.667-14.894 21.31-15.517 32.95-.789 15.123 7.376 24.053 21.265 24.053 12.106 0 24.36-6.51 33.706-19.976l-3.768-3.318zM179.357 91.542c.386-7.543 3.186-17.678 8.869-27.663 5.673-10.12 11.227-15.26 16.53-15.26 4.527 0 7.216 3.465 6.899 9.518-.355 6.642-3.75 19.347-9.741 29.785-4.996 8.763-9.772 13.132-15.505 13.132-4.236 0-7.375-3.444-7.052-9.512m24.074 4.233c-.398 1.835-.63 3.318-.728 4.85-.342 6.8 2.81 9.816 9.62 9.816 9.224 0 18.462-7.25 26.041-22.07l1.502-3.57-4.755 1.745c-1.884 5.97-9.981 13.327-13.293 13.327-1.986 0-3.127-1.375-2.982-3.802.086-1.964 1.28-7.095 3.956-14.946l13.435-39.466h-16.333l-3.235 9.38c-1.428-7.104-6.944-11.354-14.952-11.354-9.226 0-19.041 5.594-27.798 16.64-7.447 9.213-11.838 21.159-12.433 32.047-.685 13.003 6.417 21.767 16.543 21.767 9.834 0 17.792-4.536 25.412-14.364"/>
        <path fill="#1C70E1" d="M143.644 54.361c-.87 16.615-9.162 30.38-16.411 30.38-5.295 0-6.938-3.173-6.574-10.275.857-16.192 8.661-29.186 16.071-29.186 4.823 0 7.234 3.176 6.914 9.081m21.615-15.618c-3.518 0-7.428 2.152-11.165 6.485-.093-.074-.188-.164-.272-.235-4.637-3.783-10.16-5.31-17.264-5.31-18.733 0-32.291 13.315-33.121 29.19-.407 7.554 1.878 12.994 7.259 16.922-9.473 1.66-17.018 8.908-17.45 16.614-.509 8.807 7.37 12.436 21.14 14.684l11.983 1.949c9.13 1.39 13.232 3.916 12.94 9.097-.402 7.11-11.213 12.155-24.66 12.155-13.611 0-20.592-4.764-20.275-10.484.343-5.871 6.146-6.852 6.192-7.69.08-1.533-3.093-4.052-7.178-4.052-5.156 0-9.763 4.187-10.084 9.926-.558 9.63 10.321 17.616 29.677 17.616 23.743 0 39.583-8.683 40.416-23.355.792-13.7-7.78-17.194-26.522-20.142l-9.867-1.545c-6.155-.965-10.105-1.652-9.939-4.736.377-6.438 10.756-4.591 24.256-5.785 17.175-1.53 28.424-14.076 29.232-29.334.234-4.535-.91-8.627-3.435-12.399-.025-.033-.053-.061-.08-.095.996-.947 1.955-1.345 3.034-1.345 2.436 0 3.244 3.112 6.885 3.112 3.118 0 5.387-2.017 5.57-5.421.175-3.389-2.409-5.822-7.272-5.822"/>
        <path fill="#030077" d="M330.554 53.816l-38.051 42.122h27.277l-3.2 12.029h-45.85l3.534-13.367 37.653-42.1h-25.532l3.195-12.042h44.51zM349.847 97.272c-6.96 0-7.527-4.41-2.05-24.998 3.728-14.034 6.262-21.12 14.286-21.12 8.03 0 6.808 7.086 3.096 21.12-5.48 20.589-8.384 24.998-15.332 24.998m-3.194 12.032c24.329 0 31.467-14.832 37.086-35.966 4.89-18.443 6.407-34.213-18.465-34.213-24.865 0-31.717 15.77-36.63 34.213-5.599 21.134-6.32 35.966 18.009 35.966M409.94 97.272c-6.953 0-7.505-4.41-2.062-24.998 3.743-14.034 6.287-21.12 14.307-21.12 8.024 0 6.812 7.086 3.1 21.12-5.483 20.589-8.382 24.998-15.344 24.998m-3.198 12.032c24.338 0 31.486-14.832 37.08-35.966 4.912-18.443 6.423-34.213-18.446-34.213-24.872 0-31.733 15.77-36.627 34.213-5.609 21.134-6.33 35.966 17.993 35.966M474.731 47.276h.287c5.344-6.004 10.978-8.153 18.064-8.153 6.679 0 11.165 3.204 12.83 8.548 5.976-5.88 12.045-8.548 19.8-8.548 8.942 0 15.418 5.347 12.935 14.693l-14.366 54.15h-18.865l12.346-46.524c1.613-6.02 1.78-10.694-4.24-10.694-6.006 0-8.316 4.675-9.925 10.694l-12.35 46.524h-18.44l12.34-46.524c1.61-6.02 1.783-10.694-4.233-10.694-6.022 0-8.332 4.675-9.932 10.694l-12.36 46.524H439.78l17.919-67.508h18.847l-1.814 6.818z"/>
        <g transform="translate(541.552 38.65)">
            <mask id="d" fill="#fff">
                <use xlink:href="#c"/>
            </mask>
            <path fill="#030077" d="M8.953.474c4.36 0 8.02 3.441 8.02 7.95 0 4.591-3.66 8.032-8.02 8.032-4.376 0-8.048-3.441-8.048-8.032 0-4.509 3.672-7.95 8.048-7.95zm0 14.807c3.694 0 6.561-2.947 6.561-6.857 0-3.827-2.867-6.775-6.561-6.775-3.738 0-6.6 2.948-6.6 6.775 0 3.91 2.862 6.857 6.6 6.857zM5.838 3.786h3.605c2.226 0 3.275.876 3.275 2.67 0 1.69-1.073 2.393-2.461 2.544l2.67 4.126H11.37L8.826 9.108H7.288v4.018h-1.45v-9.34zm1.45 4.147h1.52c1.276 0 2.451-.068 2.451-1.538 0-1.237-1.067-1.434-2.047-1.434H7.288v2.972z" mask="url(#d)"/>
        </g>
    </g>
</svg>
