<?xml version="1.0" encoding="utf-8"?>
<!-- Generator: Adobe Illustrator 22.0.1, SVG Export Plug-In . SVG Version: 6.00 Build 0)  -->
<svg version="1.1" id="Lyft_Logo" xmlns="http://www.w3.org/2000/svg" xmlns:xlink="http://www.w3.org/1999/xlink" x="0px" y="0px"
	 viewBox="0 0 1410 1124" style="enable-background:new 0 0 1410 1124;" xml:space="preserve">
<style type="text/css">
	.st0{fill:#231F20;}
	.st1{fill:#FFFFFF;}
	.st2{fill:#FF00BF;}
</style>
<g>
	<path class="st2" d="M606,580.8c0,5-2.4,9.8-6.5,12.6c-16.1,11.3-33.5-0.1-33.5-15.4V418H446v200c0,55.1,44.9,100,100,100
		c23.8,0,46.9-8.5,65-24c-1.9,14.8-10,27-23.6,35.5c-12.7,8-29.3,12.2-47.9,12.2c-19.2,0-38.7-4.5-56.4-13c0,0-3.2-1.5-7.2-3.8
		v106.6c26.7,10.8,56,16.5,84.3,16.5c44.8,0,85.7-14,115.2-39.5C708.5,780,726,738.3,726,688V418H606V580.8z"/>
	<path class="st2" d="M416,618V298H296v300c0,82.4,54.4,120,105,120h0c15.1,0,30.2-3.5,43.7-9.8c2-0.9,5.2-2.9,5.2-2.9
		s-3-3.2-4.3-4.6C426.4,678.8,416,650.4,416,618z"/>
	<path class="st2" d="M1116,538V418h-42.8c-17.9-94.3-117-156.3-216.6-119C801.1,319.7,756,386,756,445.3v265.9v1.8v5h4.8
		c0.1,0,0.1,0,0.2,0c0.1,0,0.1,0,0.2,0c30.9-1.3,59.8-14.4,81.3-36.8c21.6-22.5,33.5-52,33.5-83.1h50V478h-50v-33
		c0-12.8,6.8-24.8,18-31c30.7-17.1,62,4.9,62,34v110c0,43.5,16.4,83.9,46.2,113.8c28.5,28.5,67.1,44.9,108.6,46.2c0,0,0.1,0,0.1,0
		c0,0,0,0,0.1,0v0h4.9v-5V708V598c0,0,0,0,0,0c-22.4-0.1-40-18.1-40-40v-20H1116z"/>
</g>
</svg>
