<?xml version="1.0" encoding="UTF-8" standalone="no"?>
<svg
   xmlns:dc="http://purl.org/dc/elements/1.1/"
   xmlns:cc="http://creativecommons.org/ns#"
   xmlns:rdf="http://www.w3.org/1999/02/22-rdf-syntax-ns#"
   xmlns:svg="http://www.w3.org/2000/svg"
   xmlns="http://www.w3.org/2000/svg"
   viewBox="0 0 876.94135 425.33334"
   height="425.33334"
   width="876.94135"
   xml:space="preserve"
   id="svg2"
   version="1.1"><metadata
     id="metadata8"><rdf:RDF><cc:Work
         rdf:about=""><dc:format>image/svg+xml</dc:format><dc:type
           rdf:resource="http://purl.org/dc/dcmitype/StillImage" /></cc:Work></rdf:RDF></metadata><defs
     id="defs6"><clipPath
       id="clipPath18"
       clipPathUnits="userSpaceOnUse"><path
         id="path16"
         d="M 0,319 H 657.706 V 0 H 0 Z" /></clipPath><clipPath
       id="clipPath26"
       clipPathUnits="userSpaceOnUse"><path
         id="path24"
         d="M 423.64,242 H 588.639 V 77.0005 H 423.64 Z" /></clipPath><clipPath
       id="clipPath30"
       clipPathUnits="userSpaceOnUse"><path
         id="path28"
         d="m 558.674,82.142 c 6.855,-6.855 17.969,-6.855 24.824,0 6.854,6.855 6.854,17.969 0,24.823 L 453.605,236.858 c -6.855,6.855 -17.969,6.855 -24.824,0 -6.855,-6.855 -6.855,-17.969 0,-24.823 z" /></clipPath><linearGradient
       id="linearGradient36"
       spreadMethod="pad"
       gradientTransform="matrix(528.38055,0,0,-528.38055,63.801212,159.5)"
       gradientUnits="userSpaceOnUse"
       y2="0"
       x2="1"
       y1="0"
       x1="0"><stop
         id="stop32"
         offset="0"
         style="stop-opacity:1;stop-color:#ff4e00" /><stop
         id="stop34"
         offset="1"
         style="stop-opacity:1;stop-color:#ff1791" /></linearGradient><clipPath
       id="clipPath58"
       clipPathUnits="userSpaceOnUse"><path
         id="path56"
         d="M 558.674,236.858 428.781,106.966 c -6.855,-6.855 -6.855,-17.969 0,-24.825 v 0 c 6.855,-6.854 17.969,-6.854 24.823,0 v 0 l 129.894,129.894 c 6.854,6.855 6.854,17.968 0,24.823 v 0 c -3.428,3.428 -7.92,5.142 -12.412,5.142 v 0 c -4.493,0 -8.985,-1.714 -12.412,-5.142" /></clipPath><linearGradient
       id="linearGradient68"
       spreadMethod="pad"
       gradientTransform="matrix(523.66766,0,0,-523.66766,67.896934,159.5)"
       gradientUnits="userSpaceOnUse"
       y2="0"
       x2="1"
       y1="0"
       x1="0"><stop
         id="stop64"
         offset="0"
         style="stop-opacity:1;stop-color:#ff4e00" /><stop
         id="stop66"
         offset="1"
         style="stop-opacity:1;stop-color:#ff1791" /></linearGradient><clipPath
       id="clipPath78"
       clipPathUnits="userSpaceOnUse"><path
         id="path76"
         d="M 0,319 H 657.706 V 0 H 0 Z" /></clipPath><clipPath
       id="clipPath86"
       clipPathUnits="userSpaceOnUse"><path
         id="path84"
         d="m 311.3,242 h 93.031 V 77.0005 H 311.3 Z" /></clipPath><clipPath
       id="clipPath90"
       clipPathUnits="userSpaceOnUse"><path
         id="path88"
         d="m 328.853,112.107 c 22.297,0 40.372,18.075 40.372,40.372 v 71.315 c 0,10.054 7.505,18.206 17.554,18.206 10.048,0 17.552,-8.152 17.552,-18.206 V 152.479 C 404.331,110.793 370.538,77 328.853,77 319.159,77 311.3,84.859 311.3,94.554 c 0,9.694 7.859,17.553 17.553,17.553" /></clipPath><linearGradient
       id="linearGradient96"
       spreadMethod="pad"
       gradientTransform="matrix(-524.84045,0,0,-524.84045,592.14935,159.5)"
       gradientUnits="userSpaceOnUse"
       y2="0"
       x2="1"
       y1="0"
       x1="0"><stop
         id="stop92"
         offset="0"
         style="stop-opacity:1;stop-color:#ff4e00" /><stop
         id="stop94"
         offset="1"
         style="stop-opacity:1;stop-color:#ff1791" /></linearGradient><clipPath
       id="clipPath118"
       clipPathUnits="userSpaceOnUse"><path
         id="path116"
         d="m 198.96,242 h 35.106 V 77.0005 H 198.96 Z" /></clipPath><clipPath
       id="clipPath122"
       clipPathUnits="userSpaceOnUse"><path
         id="path120"
         d="m 216.513,242 c -10.049,0 -17.553,-8.152 -17.553,-18.206 V 95.206 C 198.96,85.152 206.464,77 216.513,77 c 10.048,0 17.553,8.152 17.553,18.206 v 128.588 c 0,10.054 -7.505,18.206 -17.553,18.206" /></clipPath><linearGradient
       id="linearGradient128"
       spreadMethod="pad"
       gradientTransform="matrix(524.84045,0,0,-524.84045,63.801212,159.5)"
       gradientUnits="userSpaceOnUse"
       y2="0"
       x2="1"
       y1="0"
       x1="0"><stop
         id="stop124"
         offset="0"
         style="stop-opacity:1;stop-color:#ff4e00" /><stop
         id="stop126"
         offset="1"
         style="stop-opacity:1;stop-color:#ff1791" /></linearGradient><clipPath
       id="clipPath150"
       clipPathUnits="userSpaceOnUse"><path
         id="path148"
         d="m 369.225,224.447 c 0,-9.694 7.859,-17.553 17.553,-17.553 v 0 c 9.695,0 17.553,7.859 17.553,17.553 v 0 c 0,9.694 -7.858,17.552 -17.553,17.552 v 0 c -9.694,0 -17.553,-7.858 -17.553,-17.552" /></clipPath><linearGradient
       id="linearGradient160"
       spreadMethod="pad"
       gradientTransform="matrix(523.08514,0,0,-523.08514,67.896934,224.44646)"
       gradientUnits="userSpaceOnUse"
       y2="0"
       x2="1"
       y1="0"
       x1="0"><stop
         id="stop156"
         offset="0"
         style="stop-opacity:1;stop-color:#ff4e00" /><stop
         id="stop158"
         offset="1"
         style="stop-opacity:1;stop-color:#ff1791" /></linearGradient><clipPath
       id="clipPath170"
       clipPathUnits="userSpaceOnUse"><path
         id="path168"
         d="M 553.532,94.554 C 553.532,84.859 561.391,77 571.085,77 v 0 c 9.695,0 17.554,7.859 17.554,17.554 v 0 c 0,9.694 -7.859,17.552 -17.554,17.552 v 0 c -9.694,0 -17.553,-7.858 -17.553,-17.552" /></clipPath><linearGradient
       id="linearGradient180"
       spreadMethod="pad"
       gradientTransform="matrix(524.84045,0,0,-524.84045,63.801212,94.553314)"
       gradientUnits="userSpaceOnUse"
       y2="0"
       x2="1"
       y1="0"
       x1="0"><stop
         id="stop176"
         offset="0"
         style="stop-opacity:1;stop-color:#ff4e00" /><stop
         id="stop178"
         offset="1"
         style="stop-opacity:1;stop-color:#ff1791" /></linearGradient><clipPath
       id="clipPath190"
       clipPathUnits="userSpaceOnUse"><path
         id="path188"
         d="M 69.067,223.794 V 95.206 C 69.067,85.152 76.571,77 86.62,77 v 0 c 10.048,0 17.553,8.152 17.553,18.206 v 0 128.588 c 0,10.055 -7.505,18.205 -17.553,18.205 v 0 c -10.049,0 -17.553,-8.15 -17.553,-18.205" /></clipPath><linearGradient
       id="linearGradient200"
       spreadMethod="pad"
       gradientTransform="matrix(524.84045,0,0,-524.84045,63.801212,159.5)"
       gradientUnits="userSpaceOnUse"
       y2="0"
       x2="1"
       y1="0"
       x1="0"><stop
         id="stop196"
         offset="0"
         style="stop-opacity:1;stop-color:#ff4e00" /><stop
         id="stop198"
         offset="1"
         style="stop-opacity:1;stop-color:#ff1791" /></linearGradient><clipPath
       id="clipPath210"
       clipPathUnits="userSpaceOnUse"><path
         id="path208"
         d="M 198.96,94.554 C 198.96,84.859 206.819,77 216.513,77 v 0 c 9.695,0 17.554,7.859 17.554,17.554 v 0 c 0,9.694 -7.859,17.553 -17.554,17.553 v 0 c -9.694,0 -17.553,-7.859 -17.553,-17.553" /></clipPath><linearGradient
       id="linearGradient220"
       spreadMethod="pad"
       gradientTransform="matrix(524.84045,0,0,-524.84045,63.801212,94.553551)"
       gradientUnits="userSpaceOnUse"
       y2="0"
       x2="1"
       y1="0"
       x1="0"><stop
         id="stop216"
         offset="0"
         style="stop-opacity:1;stop-color:#ff4e00" /><stop
         id="stop218"
         offset="1"
         style="stop-opacity:1;stop-color:#ff1791" /></linearGradient><clipPath
       id="clipPath230"
       clipPathUnits="userSpaceOnUse"><path
         id="path228"
         d="M 0,319 H 657.706 V 0 H 0 Z" /></clipPath><clipPath
       id="clipPath238"
       clipPathUnits="userSpaceOnUse"><path
         id="path236"
         d="M 69.0671,242 H 169.12 V 141.947 H 69.0671 Z" /></clipPath><clipPath
       id="clipPath242"
       clipPathUnits="userSpaceOnUse"><path
         id="path240"
         d="m 139.155,147.088 c 6.855,-6.855 17.969,-6.855 24.824,0 6.855,6.855 6.855,17.969 0,24.824 l -64.947,64.946 c -6.855,6.855 -17.969,6.855 -24.824,0 -6.855,-6.855 -6.855,-17.969 0,-24.823 z" /></clipPath><linearGradient
       id="linearGradient248"
       spreadMethod="pad"
       gradientTransform="matrix(521.97632,0,0,-521.97632,69.067139,191.97322)"
       gradientUnits="userSpaceOnUse"
       y2="0"
       x2="1"
       y1="0"
       x1="0"><stop
         id="stop244"
         offset="0"
         style="stop-opacity:1;stop-color:#ff4e00" /><stop
         id="stop246"
         offset="1"
         style="stop-opacity:1;stop-color:#ff1791" /></linearGradient><clipPath
       id="clipPath270"
       clipPathUnits="userSpaceOnUse"><path
         id="path268"
         d="m 204.101,236.858 -64.947,-64.946 c -6.854,-6.855 -6.854,-17.969 0,-24.824 v 0 c 6.856,-6.855 17.97,-6.855 24.824,0 v 0 l 64.947,64.947 c 6.855,6.855 6.855,17.968 0,24.823 v 0 c -3.427,3.428 -7.919,5.142 -12.412,5.142 v 0 c -4.492,0 -8.984,-1.714 -12.412,-5.142" /></clipPath><linearGradient
       id="linearGradient280"
       spreadMethod="pad"
       gradientTransform="matrix(523.09039,0,0,-523.09039,67.311829,191.97322)"
       gradientUnits="userSpaceOnUse"
       y2="0"
       x2="1"
       y1="0"
       x1="0"><stop
         id="stop276"
         offset="0"
         style="stop-opacity:1;stop-color:#ff4e00" /><stop
         id="stop278"
         offset="1"
         style="stop-opacity:1;stop-color:#ff1791" /></linearGradient><clipPath
       id="clipPath290"
       clipPathUnits="userSpaceOnUse"><path
         id="path288"
         d="M 253.374,223.794 V 152.479 C 253.374,110.794 287.167,77 328.853,77 v 0 c 9.695,0 17.553,7.859 17.553,17.554 v 0 c 0,9.694 -7.858,17.553 -17.553,17.553 v 0 c -22.297,0 -40.372,18.075 -40.372,40.372 v 0 71.315 c 0,10.055 -7.505,18.205 -17.554,18.205 v 0 c -10.049,0 -17.553,-8.15 -17.553,-18.205" /></clipPath><linearGradient
       id="linearGradient300"
       spreadMethod="pad"
       gradientTransform="matrix(524.84045,0,0,-524.84045,63.801212,159.5)"
       gradientUnits="userSpaceOnUse"
       y2="0"
       x2="1"
       y1="0"
       x1="0"><stop
         id="stop296"
         offset="0"
         style="stop-opacity:1;stop-color:#ff4e00" /><stop
         id="stop298"
         offset="1"
         style="stop-opacity:1;stop-color:#ff1791" /></linearGradient></defs><g
     transform="matrix(1.3333333,0,0,-1.3333333,0,425.33333)"
     id="g10"><g
       id="g12"><g
         clip-path="url(#clipPath18)"
         id="g14"><g
           id="g20"><g
             id="g22" /><g
             id="g50"><g
               style="opacity:0.69999701"
               id="g48"
               clip-path="url(#clipPath26)"><g
                 id="g46"><g
                   id="g44"
                   clip-path="url(#clipPath30)"><g
                     id="g42"><g
                       id="g40"><path
                         id="path38"
                         style="fill:url(#linearGradient36);stroke:none"
                         d="m 558.674,82.142 c 6.855,-6.855 17.969,-6.855 24.824,0 6.854,6.855 6.854,17.969 0,24.823 L 453.605,236.858 c -6.855,6.855 -17.969,6.855 -24.824,0 -6.855,-6.855 -6.855,-17.969 0,-24.823 z" /></g></g></g></g></g></g></g></g></g><g
       id="g52"><g
         clip-path="url(#clipPath58)"
         id="g54"><g
           id="g60"><g
             id="g62"><path
               id="path70"
               style="fill:url(#linearGradient68);stroke:none"
               d="M 558.674,236.858 428.781,106.966 c -6.855,-6.855 -6.855,-17.969 0,-24.825 v 0 c 6.855,-6.854 17.969,-6.854 24.823,0 v 0 l 129.894,129.894 c 6.854,6.855 6.854,17.968 0,24.823 v 0 c -3.428,3.428 -7.92,5.142 -12.412,5.142 v 0 c -4.493,0 -8.985,-1.714 -12.412,-5.142" /></g></g></g></g><g
       id="g72"><g
         clip-path="url(#clipPath78)"
         id="g74"><g
           id="g80"><g
             id="g82" /><g
             id="g110"><g
               style="opacity:0.69999701"
               id="g108"
               clip-path="url(#clipPath86)"><g
                 id="g106"><g
                   id="g104"
                   clip-path="url(#clipPath90)"><g
                     id="g102"><g
                       id="g100"><path
                         id="path98"
                         style="fill:url(#linearGradient96);stroke:none"
                         d="m 328.853,112.107 c 22.297,0 40.372,18.075 40.372,40.372 v 71.315 c 0,10.054 7.505,18.206 17.554,18.206 10.048,0 17.552,-8.152 17.552,-18.206 V 152.479 C 404.331,110.793 370.538,77 328.853,77 319.159,77 311.3,84.859 311.3,94.554 c 0,9.694 7.859,17.553 17.553,17.553" /></g></g></g></g></g></g></g><g
           id="g112"><g
             id="g114" /><g
             id="g142"><g
               style="opacity:0.69999701"
               id="g140"
               clip-path="url(#clipPath118)"><g
                 id="g138"><g
                   id="g136"
                   clip-path="url(#clipPath122)"><g
                     id="g134"><g
                       id="g132"><path
                         id="path130"
                         style="fill:url(#linearGradient128);stroke:none"
                         d="m 216.513,242 c -10.049,0 -17.553,-8.152 -17.553,-18.206 V 95.206 C 198.96,85.152 206.464,77 216.513,77 c 10.048,0 17.553,8.152 17.553,18.206 v 128.588 c 0,10.054 -7.505,18.206 -17.553,18.206" /></g></g></g></g></g></g></g></g></g><g
       id="g144"><g
         clip-path="url(#clipPath150)"
         id="g146"><g
           id="g152"><g
             id="g154"><path
               id="path162"
               style="fill:url(#linearGradient160);stroke:none"
               d="m 369.225,224.447 c 0,-9.694 7.859,-17.553 17.553,-17.553 v 0 c 9.695,0 17.553,7.859 17.553,17.553 v 0 c 0,9.694 -7.858,17.552 -17.553,17.552 v 0 c -9.694,0 -17.553,-7.858 -17.553,-17.552" /></g></g></g></g><g
       id="g164"><g
         clip-path="url(#clipPath170)"
         id="g166"><g
           id="g172"><g
             id="g174"><path
               id="path182"
               style="fill:url(#linearGradient180);stroke:none"
               d="M 553.532,94.554 C 553.532,84.859 561.391,77 571.085,77 v 0 c 9.695,0 17.554,7.859 17.554,17.554 v 0 c 0,9.694 -7.859,17.552 -17.554,17.552 v 0 c -9.694,0 -17.553,-7.858 -17.553,-17.552" /></g></g></g></g><g
       id="g184"><g
         clip-path="url(#clipPath190)"
         id="g186"><g
           id="g192"><g
             id="g194"><path
               id="path202"
               style="fill:url(#linearGradient200);stroke:none"
               d="M 69.067,223.794 V 95.206 C 69.067,85.152 76.571,77 86.62,77 v 0 c 10.048,0 17.553,8.152 17.553,18.206 v 0 128.588 c 0,10.055 -7.505,18.205 -17.553,18.205 v 0 c -10.049,0 -17.553,-8.15 -17.553,-18.205" /></g></g></g></g><g
       id="g204"><g
         clip-path="url(#clipPath210)"
         id="g206"><g
           id="g212"><g
             id="g214"><path
               id="path222"
               style="fill:url(#linearGradient220);stroke:none"
               d="M 198.96,94.554 C 198.96,84.859 206.819,77 216.513,77 v 0 c 9.695,0 17.554,7.859 17.554,17.554 v 0 c 0,9.694 -7.859,17.553 -17.554,17.553 v 0 c -9.694,0 -17.553,-7.859 -17.553,-17.553" /></g></g></g></g><g
       id="g224"><g
         clip-path="url(#clipPath230)"
         id="g226"><g
           id="g232"><g
             id="g234" /><g
             id="g262"><g
               style="opacity:0.69999701"
               id="g260"
               clip-path="url(#clipPath238)"><g
                 id="g258"><g
                   id="g256"
                   clip-path="url(#clipPath242)"><g
                     id="g254"><g
                       id="g252"><path
                         id="path250"
                         style="fill:url(#linearGradient248);stroke:none"
                         d="m 139.155,147.088 c 6.855,-6.855 17.969,-6.855 24.824,0 6.855,6.855 6.855,17.969 0,24.824 l -64.947,64.946 c -6.855,6.855 -17.969,6.855 -24.824,0 -6.855,-6.855 -6.855,-17.969 0,-24.823 z" /></g></g></g></g></g></g></g></g></g><g
       id="g264"><g
         clip-path="url(#clipPath270)"
         id="g266"><g
           id="g272"><g
             id="g274"><path
               id="path282"
               style="fill:url(#linearGradient280);stroke:none"
               d="m 204.101,236.858 -64.947,-64.946 c -6.854,-6.855 -6.854,-17.969 0,-24.824 v 0 c 6.856,-6.855 17.97,-6.855 24.824,0 v 0 l 64.947,64.947 c 6.855,6.855 6.855,17.968 0,24.823 v 0 c -3.427,3.428 -7.919,5.142 -12.412,5.142 v 0 c -4.492,0 -8.984,-1.714 -12.412,-5.142" /></g></g></g></g><g
       id="g284"><g
         clip-path="url(#clipPath290)"
         id="g286"><g
           id="g292"><g
             id="g294"><path
               id="path302"
               style="fill:url(#linearGradient300);stroke:none"
               d="M 253.374,223.794 V 152.479 C 253.374,110.794 287.167,77 328.853,77 v 0 c 9.695,0 17.553,7.859 17.553,17.554 v 0 c 0,9.694 -7.858,17.553 -17.553,17.553 v 0 c -22.297,0 -40.372,18.075 -40.372,40.372 v 0 71.315 c 0,10.055 -7.505,18.205 -17.554,18.205 v 0 c -10.049,0 -17.553,-8.15 -17.553,-18.205" /></g></g></g></g></g></svg>