<?xml version="1.0" encoding="UTF-8" standalone="no"?>
<svg
   xmlns:dc="http://purl.org/dc/elements/1.1/"
   xmlns:cc="http://creativecommons.org/ns#"
   xmlns:rdf="http://www.w3.org/1999/02/22-rdf-syntax-ns#"
   xmlns:svg="http://www.w3.org/2000/svg"
   xmlns="http://www.w3.org/2000/svg"
   viewBox="0 0 1056 288"
   height="288"
   width="1056"
   xml:space="preserve"
   id="svg2"
   version="1.1"><metadata
     id="metadata8"><rdf:RDF><cc:Work
         rdf:about=""><dc:format>image/svg+xml</dc:format><dc:type
           rdf:resource="http://purl.org/dc/dcmitype/StillImage" /></cc:Work></rdf:RDF></metadata><defs
     id="defs6"><clipPath
       id="clipPath30"
       clipPathUnits="userSpaceOnUse"><path
         id="path28"
         d="M 0,216 H 792 V 0 H 0 Z" /></clipPath></defs><g
     transform="matrix(1.3333333,0,0,-1.3333333,0,288)"
     id="g10"><g
       transform="translate(693.7129,148.1172)"
       id="g12"><path
         id="path14"
         style="fill:#000100;fill-opacity:1;fill-rule:nonzero;stroke:none"
         d="M 0,0 V -1.13 H -3.055 V -9.764 H -4.352 V -1.13 H -7.406 V 0 Z" /></g><g
       transform="translate(695.2891,148.1172)"
       id="g16"><path
         id="path18"
         style="fill:#000100;fill-opacity:1;fill-rule:nonzero;stroke:none"
         d="M 0,0 H 1.715 L 5.23,-7.657 8.73,0 h 1.731 V -9.764 H 9.164 v 7.84 L 5.537,-9.764 H 4.854 L 1.199,-1.869 V -9.764 H 0 Z" /></g><g
       transform="translate(679.3828,62.2549)"
       id="g20"><path
         id="path22"
         style="fill:#000000;fill-opacity:1;fill-rule:nonzero;stroke:none"
         d="M 0,0 H -18.826 L -49.904,39.917 V 0 h -14.561 v 85.996 h 14.561 V 48.383 l 29.617,37.613 H -2.795 L -35.957,44.783 Z" /></g><g
       id="g24"><g
         clip-path="url(#clipPath30)"
         id="g26"><g
           transform="translate(470.8828,74.2808)"
           id="g32"><path
             id="path34"
             style="fill:#000000;fill-opacity:1;fill-rule:nonzero;stroke:none"
             d="m 0,0 c -15.676,0 -28.438,13.871 -28.438,30.925 0,17.049 12.762,30.921 28.438,30.921 15.68,0 28.438,-13.872 28.438,-30.921 C 28.438,13.871 15.68,0 0,0 m 0,76.192 c -24.147,0 -43.79,-20.309 -43.79,-45.267 0,-24.963 19.643,-45.27 43.79,-45.27 24.14,0 43.782,20.307 43.782,45.27 C 43.782,55.883 24.14,76.192 0,76.192" /></g><g
           transform="translate(401.9697,148.251)"
           id="g36"><path
             id="path38"
             style="fill:#000000;fill-opacity:1;fill-rule:nonzero;stroke:none"
             d="M 0,0 -12.78,-66.707 -26.753,0 H -41.146 L -55.116,-66.707 -67.892,0 h -15.096 l 17.906,-85.996 h 18.098 l 13.036,62.761 13.036,-62.761 H -2.813 L 15.093,0 Z" /></g><g
           transform="translate(563.1953,107.1655)"
           id="g40"><path
             id="path42"
             style="fill:#000000;fill-opacity:1;fill-rule:nonzero;stroke:none"
             d="m 0,0 -1.199,-0.051 c -2.541,-0.104 -4.739,-0.196 -9.555,-0.196 h -6.234 v 28.379 h 8.08 c 9.951,0 14.035,-0.161 17.519,-1.905 3.303,-1.678 7.223,-5.158 7.223,-12.222 C 15.834,7.866 13.082,0.455 0,0 m 13.838,-9.719 0.66,0.195 c 3.928,1.181 16.756,6.353 16.756,23.405 0,8.722 -3.258,15.999 -9.418,21.04 -7.395,5.963 -14.879,6.039 -26.213,6.16 l -0.461,0.004 h -27.205 v -85.996 h 15.055 V -12.58 H -1.537 L 15.732,-44.911 H 33.09 Z" /></g><g
           transform="translate(163.1855,62.2549)"
           id="g44"><path
             id="path46"
             style="fill:#000000;fill-opacity:1;fill-rule:nonzero;stroke:none"
             d="M 0,0 V 85.996 H -14.542 V 26.3 L -54.231,85.996 H -68.054 V 0 H -53.64 V 60.786 L -13.333,0 Z" /></g><g
           transform="translate(224.9077,106.3086)"
           id="g48"><path
             id="path50"
             style="fill:#000000;fill-opacity:1;fill-rule:nonzero;stroke:none"
             d="m 0,0 -2.647,0.584 2.617,0.712 c 2.603,0.714 5.13,2.422 7.51,5.093 3.082,3.457 4.607,8.756 4.607,13.946 0,17.141 -17.722,22.926 -27.085,22.926 -7.375,0 -15.021,-2.605 -19.971,-6.806 -6.708,-5.637 -8.426,-13.214 -9.213,-18.317 h 15.003 c 1.013,5.503 3.627,12.129 13.661,12.129 6.934,0 11.774,-4.842 11.774,-11.771 0,-10.687 -9.988,-12.442 -11.126,-12.442 h -6.433 V -5.909 h 3.589 c 2.392,0 6.821,-0.247 9.635,-1.902 3.977,-2.175 6.264,-4.943 6.264,-10.1 0,-6.682 -3.722,-14.482 -14.219,-14.482 -8.588,0 -14.358,5.459 -14.358,13.579 v 2.043 h -15.699 c 0.195,-12.619 5.846,-19.086 8.301,-21.301 4.671,-4.425 12.701,-7.06 21.496,-7.06 18.498,0 30.445,10.328 30.445,26.318 C 14.151,-2.916 3.322,-0.73 0,0" /></g><g
           transform="translate(308.8755,148.251)"
           id="g52"><path
             id="path54"
             style="fill:#000000;fill-opacity:1;fill-rule:nonzero;stroke:none"
             d="m 0,0 h -62.189 v -13.691 h 23.258 v -72.305 h 15.172 v 72.305 H 0 Z" /></g></g></g></g></svg>