<?xml version="1.0" encoding="utf-8"?>
<!-- Generator: Adobe Illustrator 22.1.0, SVG Export Plug-In . SVG Version: 6.00 Build 0)  -->
<svg version="1.1" id="Layer_1" xmlns="http://www.w3.org/2000/svg" xmlns:xlink="http://www.w3.org/1999/xlink" x="0px" y="0px"
	 viewBox="0 0 404.1 92.1" style="enable-background:new 0 0 404.1 92.1;" xml:space="preserve">
<style type="text/css">
	.st0{fill:#FFFFFF;}
	.st1{fill:#1C4798;}
</style>
<title>OmniSci_Secondary_HorizontalBox</title>
<path class="st0" d="M119.5,60.8V44.6c0-0.8-0.1-1.6-0.2-2.4c-0.1-0.7-0.3-1.4-0.6-2c-0.3-0.5-0.7-1-1.3-1.3
	c-0.6-0.4-1.4-0.5-2.1-0.5c-0.8,0-1.5,0.2-2.1,0.6c-0.6,0.3-1.1,0.8-1.5,1.4c-0.4,0.6-0.7,1.3-0.9,2c-0.2,0.8-0.3,1.6-0.3,2.4v16
	h-9.6V43.9c0.1-1.4-0.3-2.8-1-4c-0.7-1-1.9-1.6-3.2-1.5c-1.4-0.1-2.8,0.6-3.6,1.8c-0.9,1.3-1.3,2.9-1.3,4.5v16.1h-9.7V31.4h9.3v4
	h0.1c0.4-0.7,0.8-1.3,1.3-1.8c0.6-0.6,1.2-1.1,1.9-1.6c0.8-0.5,1.6-0.8,2.5-1.1c1-0.3,2-0.4,3-0.4c1.9-0.1,3.7,0.4,5.4,1.3
	c1.5,0.9,2.7,2.2,3.4,3.7c0.9-1.5,2.2-2.7,3.8-3.6c1.7-0.9,3.6-1.4,5.6-1.4c1.7-0.1,3.4,0.3,5,1.1c1.3,0.7,2.4,1.6,3.3,2.8
	c0.8,1.2,1.4,2.5,1.8,3.9c0.4,1.4,0.6,2.8,0.6,4.2v18.3H119.5z"/>
<path class="st0" d="M173.2,60.8V44.6c0-0.8-0.1-1.6-0.2-2.4c-0.1-0.7-0.3-1.4-0.7-2c-0.3-0.6-0.8-1-1.3-1.4
	c-0.7-0.4-1.4-0.5-2.1-0.5c-0.8,0-1.6,0.2-2.3,0.5c-0.6,0.3-1.2,0.8-1.6,1.4c-0.4,0.6-0.8,1.3-1,2c-0.2,0.8-0.3,1.6-0.3,2.4v16.1
	H154V31.4h9.3v4h0.1c0.4-0.7,0.8-1.3,1.4-1.9c0.6-0.6,1.3-1.1,2-1.6c0.8-0.4,1.6-0.8,2.5-1.1c0.9-0.3,1.9-0.4,2.9-0.4
	c1.7,0,3.4,0.3,5,1.1c1.3,0.7,2.4,1.6,3.3,2.7c0.9,1.2,1.5,2.5,1.8,3.9c0.4,1.4,0.5,2.9,0.5,4.3v18.3H173.2z"/>
<path class="st0" d="M207.9,60.8V31.4h9.6v29.5H207.9z"/>
<path class="st0" d="M46,30.5c-8.6,0-15.6,7-15.6,15.6c0,8.6,7,15.6,15.6,15.6c8.6,0,15.6-7,15.6-15.6S54.6,30.5,46,30.5
	C46,30.5,46,30.5,46,30.5z M46,53.6c-4.1-0.3-7.3-3.9-7-8c0.3-3.7,3.2-6.7,7-7c4.1,0.4,7.2,4,6.8,8.2C52.5,50.4,49.6,53.3,46,53.6z"
	/>
<path class="st0" d="M290.6,40.1c-0.8-0.8-1.7-1.4-2.8-1.9c-1-0.5-2.2-0.8-3.4-0.8c-0.9,0-1.7,0.2-2.5,0.5c-1,0.4-1.4,1.6-1,2.6
	c0.2,0.5,0.6,0.8,1.1,1c1.3,0.5,2.7,0.9,4.1,1.2c1.1,0.2,2.2,0.6,3.3,1c1.1,0.4,2.1,1,3,1.7c0.9,0.7,1.6,1.6,2.2,2.6
	c0.6,1.1,0.9,2.4,0.8,3.6c0.1,3.1-1.4,6.1-4,7.8c-1.2,0.8-2.6,1.4-4,1.7c-1.5,0.3-3,0.5-4.5,0.5c-2.4,0-4.7-0.4-7-1.1
	c-2.1-0.7-4.1-1.8-5.7-3.4l5.4-5.7c0.9,1,2,1.8,3.2,2.4c1.2,0.6,2.6,0.9,4,0.9c0.8,0,1.6-0.2,2.3-0.6c0.8-0.4,1.2-1.2,1.1-2
	c0-0.9-0.6-1.7-1.4-2c-1.4-0.6-2.9-1-4.4-1.4c-1-0.2-2.1-0.6-3.1-1c-1-0.4-1.9-0.9-2.7-1.6c-0.8-0.7-1.5-1.5-2-2.5
	c-0.5-1.1-0.8-2.3-0.8-3.5c0-1.6,0.3-3.1,1.1-4.5c0.7-1.2,1.7-2.2,2.9-3c1.2-0.8,2.5-1.4,3.9-1.7c1.4-0.4,2.8-0.6,4.3-0.6
	c2.2,0,4.4,0.3,6.4,1c2,0.6,3.8,1.7,5.3,3.1L290.6,40.1z"/>
<path class="st0" d="M336.5,51.3c-1.3,1.5-3.2,2.3-5.2,2.3c-4.1-0.3-7.3-3.9-7-8c0.3-3.7,3.2-6.7,7-7c2,0,3.9,0.8,5.2,2.3l5.4-6.3
	c-6.4-5.8-16.2-5.4-22.1,0.9c-5.8,6.4-5.4,16.2,0.9,22.1c6,5.5,15.1,5.5,21.1,0L336.5,51.3L336.5,51.3z"/>
<path class="st0" d="M373.6,31.4v29.5H364V31.4H373.6z"/>
<circle class="st0" cx="244.4" cy="46" r="5.7"/>
<path class="st1" d="M119.5,60.8V44.6c0-0.8-0.1-1.6-0.2-2.4c-0.1-0.7-0.3-1.4-0.6-2c-0.3-0.5-0.7-1-1.3-1.3
	c-0.6-0.4-1.4-0.5-2.1-0.5c-0.8,0-1.5,0.2-2.1,0.6c-0.6,0.3-1.1,0.8-1.5,1.4c-0.4,0.6-0.7,1.3-0.9,2c-0.2,0.8-0.3,1.6-0.3,2.4v16
	h-9.6V43.9c0.1-1.4-0.3-2.8-1-4c-0.7-1-1.9-1.6-3.2-1.5c-1.4-0.1-2.8,0.6-3.6,1.8c-0.9,1.3-1.3,2.9-1.3,4.5v16.1h-9.7V31.4h9.3v4
	h0.1c0.4-0.7,0.8-1.3,1.3-1.8c0.6-0.6,1.2-1.1,1.9-1.6c0.8-0.5,1.6-0.8,2.5-1.1c1-0.3,2-0.4,3-0.4c1.9-0.1,3.7,0.4,5.4,1.3
	c1.5,0.9,2.7,2.2,3.4,3.7c0.9-1.5,2.2-2.7,3.8-3.6c1.7-0.9,3.6-1.4,5.6-1.4c1.7-0.1,3.4,0.3,5,1.1c1.3,0.7,2.4,1.6,3.3,2.8
	c0.8,1.2,1.4,2.5,1.8,3.9c0.4,1.4,0.6,2.8,0.6,4.2v18.3H119.5z"/>
<path class="st1" d="M173.2,60.8V44.6c0-0.8-0.1-1.6-0.2-2.4c-0.1-0.7-0.3-1.4-0.7-2c-0.3-0.6-0.8-1-1.3-1.4
	c-0.7-0.4-1.4-0.5-2.1-0.5c-0.8,0-1.6,0.2-2.3,0.5c-0.6,0.3-1.2,0.8-1.6,1.4c-0.4,0.6-0.8,1.3-1,2c-0.2,0.8-0.3,1.6-0.3,2.4v16.1
	H154V31.4h9.3v4h0.1c0.4-0.7,0.8-1.3,1.4-1.9c0.6-0.6,1.3-1.1,2-1.6c0.8-0.4,1.6-0.8,2.5-1.1c0.9-0.3,1.9-0.4,2.9-0.4
	c1.7,0,3.4,0.3,5,1.1c1.3,0.7,2.4,1.6,3.3,2.7c0.9,1.2,1.5,2.5,1.8,3.9c0.4,1.4,0.5,2.9,0.5,4.3v18.3H173.2z"/>
<path class="st1" d="M207.9,60.8V31.4h9.6v29.5H207.9z"/>
<path class="st1" d="M46,30.5c-8.6,0-15.6,7-15.6,15.6c0,8.6,7,15.6,15.6,15.6c8.6,0,15.6-7,15.6-15.6S54.6,30.5,46,30.5
	C46,30.5,46,30.5,46,30.5z M46,53.6c-4.1-0.3-7.3-3.9-7-8c0.3-3.7,3.2-6.7,7-7c4.1,0.4,7.2,4,6.8,8.2C52.5,50.4,49.6,53.3,46,53.6z"
	/>
<path class="st1" d="M290.6,40.1c-0.8-0.8-1.7-1.4-2.8-1.9c-1-0.5-2.2-0.8-3.4-0.8c-0.9,0-1.7,0.2-2.5,0.5c-1,0.4-1.4,1.6-1,2.6
	c0.2,0.5,0.6,0.8,1.1,1c1.3,0.5,2.7,0.9,4.1,1.2c1.1,0.2,2.2,0.6,3.3,1c1.1,0.4,2.1,1,3,1.7c0.9,0.7,1.6,1.6,2.2,2.6
	c0.6,1.1,0.9,2.4,0.8,3.6c0.1,3.1-1.4,6.1-4,7.8c-1.2,0.8-2.6,1.4-4,1.7c-1.5,0.3-3,0.5-4.5,0.5c-2.4,0-4.7-0.4-7-1.1
	c-2.1-0.7-4.1-1.8-5.7-3.4l5.4-5.7c0.9,1,2,1.8,3.2,2.4c1.2,0.6,2.6,0.9,4,0.9c0.8,0,1.6-0.2,2.3-0.6c0.8-0.4,1.2-1.2,1.1-2
	c0-0.9-0.6-1.7-1.4-2c-1.4-0.6-2.9-1-4.4-1.4c-1-0.2-2.1-0.6-3.1-1c-1-0.4-1.9-0.9-2.7-1.6c-0.8-0.7-1.5-1.5-2-2.5
	c-0.5-1.1-0.8-2.3-0.8-3.5c0-1.6,0.3-3.1,1.1-4.5c0.7-1.2,1.7-2.2,2.9-3c1.2-0.8,2.5-1.4,3.9-1.7c1.4-0.4,2.8-0.6,4.3-0.6
	c2.2,0,4.4,0.3,6.4,1c2,0.6,3.8,1.7,5.3,3.1L290.6,40.1z"/>
<path class="st1" d="M336.5,51.3c-1.3,1.5-3.2,2.3-5.2,2.3c-4.1-0.3-7.3-3.9-7-8c0.3-3.7,3.2-6.7,7-7c2,0,3.9,0.8,5.2,2.3l5.4-6.3
	c-6.4-5.8-16.2-5.4-22.1,0.9c-5.8,6.4-5.4,16.2,0.9,22.1c6,5.5,15.1,5.5,21.1,0L336.5,51.3L336.5,51.3z"/>
<path class="st1" d="M373.6,31.4v29.5H364V31.4H373.6z"/>
<circle class="st1" cx="244.4" cy="46" r="5.7"/>
</svg>
