<?xml version="1.0" encoding="utf-8"?>
<!-- Generator: Adobe Illustrator 21.1.0, SVG Export Plug-In . SVG Version: 6.00 Build 0)  -->
<svg version="1.1" id="Layer_1" xmlns="http://www.w3.org/2000/svg" xmlns:xlink="http://www.w3.org/1999/xlink" x="0px" y="0px"
	 viewBox="0 0 306 128" style="enable-background:new 0 0 306 128;" xml:space="preserve">
<style type="text/css">
	.st0{fill:#010101;}
</style>
<g>
	<path class="st0" d="M106,96c-17.6,0-32-14.4-32-32c0-17.6,14.4-32,32-32s32,14.4,32,32C138,81.6,123.6,96,106,96z M106,40
		c-13.2,0-24,10.8-24,24c0,13.2,10.8,24,24,24s24-10.8,24-24C130,50.8,119.2,40,106,40z"/>
</g>
<path class="st0" d="M198,32c-17.6,0-32,14.4-32,32c0,17.6,14.4,32,32,32c9.6,0,18.1-4.2,24-10.9V96h8V64C230,46.4,215.6,32,198,32z
	 M198,88c-13.2,0-24-10.8-24-24c0-13.2,10.8-24,24-24s24,10.8,24,24C222,77.2,211.2,88,198,88z"/>
<path class="st0" d="M32,32C14.7,32,0.6,45.8,0,63h0v65h8V85.1C13.9,91.8,22.4,96,32,96c17.6,0,32-14.4,32-32C64,46.4,49.6,32,32,32
	z M32,88C18.8,88,8,77.2,8,64c0-13.2,10.8-24,24-24c13.2,0,24,10.8,24,24C56,77.2,45.2,88,32,88z"/>
<path class="st0" d="M240,64v32h8V85.1V64c0-13.2,10.8-24,24-24v-8C254.4,32,240,46.4,240,64z"/>
<path class="st0" d="M274,64v32h8V85.1V64c0-13.2,10.8-24,24-24v-8C288.4,32,274,46.4,274,64z"/>
<rect x="148" class="st0" width="8" height="96"/>
</svg>
