<?xml version="1.0" encoding="UTF-8" standalone="no"?>
<svg
   xmlns:dc="http://purl.org/dc/elements/1.1/"
   xmlns:cc="http://creativecommons.org/ns#"
   xmlns:rdf="http://www.w3.org/1999/02/22-rdf-syntax-ns#"
   xmlns:svg="http://www.w3.org/2000/svg"
   xmlns="http://www.w3.org/2000/svg"
   viewBox="0 0 859.23999 217.98666"
   height="217.98666"
   width="859.23999"
   xml:space="preserve"
   id="svg2"
   version="1.1"><metadata
     id="metadata8"><rdf:RDF><cc:Work
         rdf:about=""><dc:format>image/svg+xml</dc:format><dc:type
           rdf:resource="http://purl.org/dc/dcmitype/StillImage" /></cc:Work></rdf:RDF></metadata><defs
     id="defs6"><clipPath
       id="clipPath20"
       clipPathUnits="userSpaceOnUse"><path
         id="path18"
         d="M 0,0 H 6444 V 1634.94 H 0 Z" /></clipPath></defs><g
     transform="matrix(1.3333333,0,0,-1.3333333,0,217.98667)"
     id="g10"><g
       transform="scale(0.1)"
       id="g12"><g
         id="g14"><g
           clip-path="url(#clipPath20)"
           id="g16"><path
             id="path22"
             style="fill:#100f0d;fill-opacity:1;fill-rule:nonzero;stroke:none"
             d="m 4738.92,802.828 c -2.45,-33.019 -9.8,-64.812 -25.68,-94.152 -30.57,-61.137 -89.28,-107.606 -178.54,-107.606 -144.29,0 -204.21,121.059 -204.21,204.203 v 1.227 c 0,103.938 73.36,209.09 202.98,209.09 96.6,0 158.99,-55.035 187.09,-118.61 13.47,-29.343 19.57,-62.355 18.36,-94.152 z m -1.24,243.332 c -29.33,53.79 -103.93,118.6 -226.24,118.6 -188.28,0 -341.13,-144.29 -341.13,-355.822 0,-189.54 125.95,-357.028 341.13,-357.028 94.18,0 183.44,39.121 226.24,117.379 v -96.598 h 160.19 v 671.279 h -160.19 v -97.81" /><path
             id="path24"
             style="fill:#100f0d;fill-opacity:1;fill-rule:nonzero;stroke:none"
             d="m 5311.37,1015.59 c 88.03,0 152.83,-50.141 180.96,-121.055 h 163.85 c -39.13,163.845 -182.19,270.225 -350.93,270.225 -200.54,0 -353.37,-157.74 -353.37,-355.822 0,-191.969 146.73,-357.028 359.49,-357.028 173.63,0 306.9,116.149 344.81,265.324 h -163.85 c -24.45,-55.019 -80.72,-114.945 -180.96,-114.945 -113.71,0 -198.08,85.609 -198.08,206.649 0,58.699 20.76,112.5 55,149.175 39.13,37.899 84.37,58.687 143.08,57.477" /><path
             id="path26"
             style="fill:#100f0d;fill-opacity:1;fill-rule:nonzero;stroke:none"
             d="M 3345.83,1143.97 3165.16,681.406 2997.25,1143.97 h -180.46 l 220.96,-555.548 46.01,-115.731 C 3034.23,336.012 2995.04,344.75 2912.63,355.332 V 221.301 c 27.77,-6.321 68.17,-12.731 118.03,-12.731 117.33,0 162.85,102.371 201.02,199.102 31.1,78.777 283.03,736.298 283.03,736.298 h -168.88" /><path
             id="path28"
             style="fill:#100f0d;fill-opacity:1;fill-rule:nonzero;stroke:none"
             d="m 2585.86,1004.33 c -178.3,51.56 -202.28,90.23 -202.28,139.63 0,49.41 47.61,105.27 155.01,105.27 107.41,0 249.03,-58.35 249.03,-58.35 v 159.14 c -51.48,18.34 -143.91,43.49 -264.07,43.49 -199.78,0 -312.6,-97.02 -312.6,-251.69 0,-167.566 89.19,-235.257 304.2,-290.461 140.8,-36.152 152.34,-94.078 152.34,-130.593 0,-36.52 -23.63,-116.004 -154.67,-116.004 -137.5,0 -283.58,62.992 -283.58,62.992 V 509.148 c 50.66,-19.109 147.85,-48.328 296.47,-48.328 216.96,0 319.06,109.559 319.06,268.535 0,158.969 -80.62,223.422 -258.91,274.975" /><path
             id="path30"
             style="fill:#100f0d;fill-opacity:1;fill-rule:nonzero;stroke:none"
             d="m 3807.32,1174 c -168.92,0 -317.47,-136.93 -317.47,-305.867 V 472.691 h 159.5 v 399.793 c 0,80.856 77.14,146.396 157.97,146.396 80.86,0 158,-65.54 158,-146.396 V 472.691 H 4124.8 V 868.133 C 4124.8,1037.07 3976.27,1174 3807.32,1174" /><path
             id="path32"
             style="fill:#100f0d;fill-opacity:1;fill-rule:nonzero;stroke:none"
             d="m 5706.01,1426.37 h 160.16 V 854.605 l 221.8,289.305 h 201.24 L 6032.77,827.449 6290.44,472.691 H 6100.07 L 5931.91,716.262 5866.17,632.66 V 472.691 h -160.16 v 953.679" /><path
             id="path34"
             style="fill:#4664b8;fill-opacity:1;fill-rule:nonzero;stroke:none"
             d="M 977.156,1528.38 797.352,1216.93 h 359.628 l -179.824,311.45" /><path
             id="path36"
             style="fill:#4664b8;fill-opacity:1;fill-rule:nonzero;stroke:none"
             d="M 474.117,1356.48 0,1634.94 78.1602,1386.18 391.117,1202.37 l 2.961,-1.45 C 505.375,1146.4 591.41,1046.43 650.746,903.117 L 134.238,1207.74 212.555,958.48 909.172,547.75 c -23.258,263.219 -114.051,649.29 -435.055,808.73" /><path
             id="path38"
             style="fill:#4664b8;fill-opacity:1;fill-rule:nonzero;stroke:none"
             d="M 264.512,793.145 342.844,543.891 804.453,271.738 689.16,203.84 688.969,0 977.168,169.91 1265.36,0 l -0.19,203.84 -115.29,67.898 461.61,272.153 78.33,249.254 L 977.168,373.449 264.512,793.145" /><path
             id="path40"
             style="fill:#4664b8;fill-opacity:1;fill-rule:nonzero;stroke:none"
             d="m 1560.24,1200.92 2.96,1.45 312.95,183.81 78.16,248.76 -474.09,-278.46 C 1159.19,1197.04 1068.4,810.969 1045.16,547.75 l 696.6,410.73 78.34,249.26 -516.52,-304.623 c 59.33,143.313 145.38,243.283 256.66,297.803" /><path
             id="path42"
             style="fill:#100f0d;fill-opacity:1;fill-rule:nonzero;stroke:none"
             d="m 6379.19,536.609 c 4.61,0 7.96,0.879 10.08,2.653 2.11,1.789 3.15,4.91 3.15,9.386 v 0.411 c 0,3.671 -1.11,6.48 -3.34,8.39 -2.24,1.903 -6.01,2.86 -11.28,2.86 h -15.2 v -23.7 z m -16.59,-39.121 h -16.39 v 77.043 h 31.59 c 10.66,0 18.51,-2.043 23.51,-6.121 5.01,-4.101 7.51,-10.539 7.51,-19.351 v -0.411 c 0,-6.578 -1.47,-11.808 -4.43,-15.699 -2.96,-3.879 -6.96,-6.687 -11.97,-8.39 l 17.97,-27.071 h -17.77 l -16.59,25.094 h -13.43 v -25.094" /><path
             id="path44"
             style="fill:#100f0d;fill-opacity:1;fill-rule:nonzero;stroke:none"
             d="m 6374.45,594.629 c -31.98,0 -57.99,-26.027 -57.99,-58.027 0,-31.981 26.01,-58.012 57.99,-58.012 31.97,0 57.99,26.031 57.99,58.012 0,32 -26.02,58.027 -57.99,58.027 z m 0,-127.848 c -38.52,0 -69.85,31.321 -69.85,69.821 0,38.519 31.33,69.839 69.85,69.839 38.52,0 69.84,-31.32 69.84,-69.839 0,-38.5 -31.32,-69.821 -69.84,-69.821" /></g></g></g></g></svg>