<svg id="header-new-logo.svg_header-new-logo.png" data-name="header-new-logo.svg, header-new-logo.png" xmlns="http://www.w3.org/2000/svg" width="231" height="42.969" viewBox="0 0 231 42.969">
  <defs>
    <style>
      .cls-1 {
        fill-rule: evenodd;
      }
    </style>
  </defs>
  <path class="cls-1" d="M334.7,25.346c4.747,0,7.7,2.2,7.7,5.741v0.081c0,2.817-1.846,5.814-6.962,5.966-0.137,0-.268.015-0.412,0.015H324.656v-11.8h6.5V35.863h1.6V25.346H334.7Zm9.191,19.416v0.081c0,3.773-3.179,6.025-8.508,6.025h-2.627v-10.8h-1.6v10.8h-6.5V38.776h10.888c5.146,0,8.343,2.294,8.343,5.983m3.447-28.767H315V19.44h1.616V17.611h14.537v6.109h-9.822v1.627h1.586V50.865h-1.586v1.624h9.822v4.854h-1.646V58.97h4.931V57.345h-1.683V52.491h2.586c6.464,0,10.323-2.875,10.323-7.685V44.725c0-3.408-2.366-6.033-6.224-6.977a6.861,6.861,0,0,0,4.689-6.7V30.968a6.434,6.434,0,0,0-1.872-4.713c-1.622-1.631-4.295-2.528-7.522-2.528h-1.98V17.611h14.575v1.82h1.616V15.993h-1.616ZM542.566,42.446c2.019,0,3.433-1.075,3.433-2.882V39.535c0-1.6-1.058-2.326-3.09-2.831-1.841-.442-2.28-0.774-2.28-1.517V35.164A1.328,1.328,0,0,1,542.111,34l0.084,0.014a4.359,4.359,0,0,1,2.609.993l0.907-1.282a5.316,5.316,0,0,0-3.488-1.214c-1.91,0-3.284,1.145-3.284,2.8v0.027c0,1.78,1.155,2.386,3.2,2.883,1.786,0.414,2.171.786,2.171,1.475v0.027c0,0.731-.66,1.213-1.7,1.213a4.422,4.422,0,0,1-3.036-1.255L538.559,40.9a5.909,5.909,0,0,0,4.011,1.544m-15.715-1.683V34.195h1.895a3.156,3.156,0,0,1,3.333,2.975c0.006,0.1.008,0.2,0,.307V37.5a3.142,3.142,0,0,1-3.016,3.261,3.07,3.07,0,0,1-.321-0.006h-1.895v0Zm-1.689,1.545h3.584a4.821,4.821,0,0,0,5.1-4.541c0.006-.095.009-0.19,0.01-0.286V37.452a4.8,4.8,0,0,0-4.8-4.811c-0.1,0-.207,0-0.31.011h-3.584v9.654Zm-14.284,0h1.662V35.439l5.305,6.868h1.414V32.653H517.6v6.674l-5.151-6.674h-1.569v9.654h0ZM499.11,38.472l1.648-3.861,1.662,3.861h-3.31Zm-3.342,3.835H497.5l0.989-2.326h4.545l0.976,2.326h1.785l-4.23-9.723H500Zm-10.85-4.868V34.195h2.46c1.249,0,1.991.565,1.991,1.6v0.027a1.706,1.706,0,0,1-1.978,1.618h-2.473Zm-1.688,4.868h1.688V38.942h2.116l2.363,3.365h1.99l-2.6-3.655a2.9,2.9,0,0,0,2.293-2.923V35.7a2.922,2.922,0,0,0-.8-2.083,3.858,3.858,0,0,0-2.773-.966h-4.285v9.654h0Zm-11.684-1.5V38.156h2.678c1.333,0,1.978.482,1.978,1.3V39.48c0,0.869-.7,1.324-1.853,1.324h-2.8Zm0-4.082V34.156h2.431c1.085,0,1.69.469,1.69,1.228v0.024c0,0.882-.729,1.315-1.814,1.315h-2.307v0Zm-1.662,5.586h4.451c2.142,0,3.557-.924,3.557-2.647V39.631a2.365,2.365,0,0,0-1.91-2.344,2.3,2.3,0,0,0,1.369-2.152V35.1a2.164,2.164,0,0,0-.644-1.6,3.464,3.464,0,0,0-2.515-.855h-4.308v9.657Zm-20.037-1.545V34.195h1.9a3.157,3.157,0,0,1,3.333,2.975c0.006,0.1.007,0.2,0,.307V37.5a3.143,3.143,0,0,1-3.017,3.261,3.046,3.046,0,0,1-.32-0.006h-1.9v0Zm-1.689,1.545h3.585a4.822,4.822,0,0,0,5.1-4.541q0.009-.142.009-0.286V37.452a4.8,4.8,0,0,0-4.8-4.81c-0.1,0-.2,0-0.307.011h-3.585v9.654Zm-12.635,0h7.2V40.79h-5.5V38.2h4.821V36.68h-4.821V34.17h5.438V32.653h-7.129v9.654h0ZM423.85,37.439V34.195H426.3c1.25,0,1.992.565,1.992,1.6v0.027a1.706,1.706,0,0,1-1.978,1.618H423.85Zm-1.69,4.868h1.69V38.942h2.115l2.361,3.365h1.992l-2.6-3.655a2.9,2.9,0,0,0,2.294-2.923V35.7a2.926,2.926,0,0,0-.8-2.083,3.861,3.861,0,0,0-2.774-.966H422.16v9.654Zm-10.493-1.393a3.3,3.3,0,0,1-3.271-3.329c0-.037,0-0.073,0-0.109V37.452a3.259,3.259,0,0,1,3.1-3.4c0.046,0,.093,0,0.139,0a3.3,3.3,0,0,1,3.272,3.329c0,0.037,0,.073,0,0.109v0.027a3.257,3.257,0,0,1-3.1,3.4q-0.07,0-.141,0m-0.028,1.558a4.935,4.935,0,0,0,5.04-4.83c0-.054,0-0.108,0-0.163v-0.03a5.027,5.027,0,0,0-10.053.027v0.027a4.892,4.892,0,0,0,4.814,4.967q0.1,0,.2,0m-15.971-.166h6.743V40.762h-5.054V32.653h-1.689v9.654h0Zm-7.691,0h1.693V32.653h-1.689v9.654h0Zm-11.866-3.834,1.648-3.861,1.662,3.861h-3.31Zm-3.338,3.834H374.5l0.989-2.326h4.546l0.975,2.326H382.8l-4.231-9.723H377Zm-7.907,0h1.7V34.225h3.049V32.653h-7.8v1.572h3.049v8.082h0Z" transform="translate(-315 -16)"/>
</svg>