<?xml version="1.0" encoding="utf-8"?>
<!-- Generator: Adobe Illustrator 16.0.0, SVG Export Plug-In . SVG Version: 6.00 Build 0)  -->
<!DOCTYPE svg PUBLIC "-//W3C//DTD SVG 1.1//EN" "http://www.w3.org/Graphics/SVG/1.1/DTD/svg11.dtd">
<svg version="1.1" id="图层_1" xmlns="http://www.w3.org/2000/svg" xmlns:xlink="http://www.w3.org/1999/xlink" x="0px" y="0px"
	 width="1358.03px" height="1358.04px" viewBox="0 0 1358.03 1358.04" enable-background="new 0 0 1358.03 1358.04"
	 xml:space="preserve">
<circle fill="#EF3E43" cx="679.962" cy="678.068" r="678.068"/>
<polygon fill="#FFFFFF" points="342.227,597.921 342.227,829.284 400.156,829.637 400.156,597.921 "/>
<polygon fill="#FFFFFF" points="342.227,597.921 405.594,539.993 560.895,539.993 497.385,597.921 407.613,597.921 "/>
<polygon fill="#FFFFFF" points="231.966,597.921 232.343,539.993 342.227,539.993 278.717,597.921 "/>
<polygon fill="#FEFCFD" points="342.227,539.993 400.156,481.149 400.156,396.785 342.227,460.295 "/>
<path fill="#FFFFFF" d="M978.687,639.163c14.914-31.211,46.683-52.827,83.581-52.827c0.255,0,5.69-0.027,5.69-0.027l57.958-57.661
	h-31.598c0,0-21.6-0.241-32.051-0.241c-83.182,0-150.614,67.432-150.614,150.615c0,51.796,26.201,97.398,66.022,124.489
	c-18.822-21.957-30.26-50.43-30.26-81.618C947.416,690.164,959.277,661.267,978.687,639.163"/>
<path fill="#FFFFFF" d="M1062.268,829.636h63.504l0.289-57.929c0,0-50.192-0.574-60.125-0.185c-1.228,0.048-2.43,0.185-3.668,0.185
	c-51.189,0-92.687-41.496-92.687-92.685c0-14.291,3.329-27.772,9.105-39.859c-19.41,22.104-31.271,51.001-31.271,82.73
	c0,31.188,11.438,59.66,30.261,81.617c17.158,11.675,36.809,19.967,58.045,23.745
	C1044.343,828.79,1053.203,829.636,1062.268,829.636"/>
<polygon fill="#FFFFFF" points="840.413,644.983 782.696,702.912 669.068,702.912 726.786,644.983 776.412,644.983 "/>
<polygon fill="#FFFFFF" points="782.484,585.268 782.484,644.983 840.414,644.983 840.414,585.124 "/>
<path fill="#FFFFFF" d="M840.413,586.06v-41.281v-1.537v-14.834h-17.589h-12.297h-28.043h-56.042h-13.472
	c-6.757,0-13.396,0.489-19.918,1.351c-73.761,9.753-130.697,72.838-130.697,149.263c0,76.495,57.039,139.624,130.899,149.288
	c6.456,0.846,13.027,1.327,19.716,1.327h127.442l-0.21-57.93h-8.561H712.971c-51.189,0-92.686-41.497-92.686-92.686
	c0-51.189,41.497-92.686,92.686-92.686h63.315L840.413,586.06z"/>
</svg>
