<?xml version="1.0" encoding="UTF-8"?>
<svg width="148px" height="31px" viewBox="0 0 148 31" version="1.1" xmlns="http://www.w3.org/2000/svg" xmlns:xlink="http://www.w3.org/1999/xlink">
    <!-- Generator: Sketch 53.1 (72631) - https://sketchapp.com -->
    <title>totle-logo</title>
    <desc>Created with Sketch.</desc>
    <g id="Page-1" stroke="none" stroke-width="1" fill="none" fill-rule="evenodd">
        <g id="totle-logo" fill="#202A35">
            <polygon id="Fill-3024" points="51 4 67 4 67 7.56589327 60.9966428 7.56589327 60.9966428 25 57.004064 25 57.004064 7.56589327 51 7.56589327"></polygon>
            <path d="M81.4849059,22.0793979 C85.2104025,22.0793979 88.1544367,18.9362362 88.1544367,15.0156341 C88.1544367,11.095032 85.2104025,7.92060211 81.4849059,7.92060211 C77.7292211,7.92060211 74.8153751,11.095032 74.8153751,15.0156341 C74.8153751,18.9362362 77.7292211,22.0793979 81.4849059,22.0793979 M81.4849059,4 C87.3736605,4 92,8.9169197 92,15.0156341 C92,21.0525228 87.3736605,26 81.4849059,26 C75.5961513,26 71,21.0525228 71,15.0156341 C71,8.9169197 75.5961513,4 81.4849059,4" id="Fill-3025"></path>
            <polygon id="Fill-3026" points="96 4 112 4 112 7.56589327 105.996643 7.56589327 105.996643 25 102.004064 25 102.004064 7.56589327 96 7.56589327"></polygon>
            <polygon id="Fill-3027" points="117 4 120.897983 4 120.897983 21.52529 129 21.52529 129 25 117 25"></polygon>
            <polygon id="Fill-3028" points="135 4 147.702425 4 147.702425 7.47470998 138.786758 7.47470998 138.786758 12.9303944 146.599288 12.9303944 146.599288 16.374478 138.786758 16.374478 138.786758 21.52529 148 21.52529 148 25 135 25"></polygon>
            <polygon id="Fill-3029" points="31.805794 0 17.5 0 3.19420597 0 0 0 0 3.44490112 0 13.7816595 12.6782933 26.231665 12.6782933 21.3146835 12.6782933 9.89561374 12.6782933 6.45002762 6.57429222 6.45002762 6.57429222 9.89561374 9.16333906 9.89561374 9.16333906 17.8773174 3.51495428 12.3520495 3.51495428 3.44490112 15.7425229 3.44490112 15.7425229 29.2724119 17.5 31 19.2574771 29.2724119 19.2574771 3.44490112 31.4857445 3.44490112 31.4857445 12.3520495 25.8366609 17.8773174 25.8366609 9.89561374 28.4264066 9.89561374 28.4264066 6.45002762 22.3217067 6.45002762 22.3217067 9.89561374 22.3217067 21.3146835 22.3217067 26.231665 35 13.7816595 35 3.44490112 35 0"></polygon>
        </g>
    </g>
</svg>