<?xml version="1.0" encoding="UTF-8"?>
<svg width="360px" height="126px" viewBox="0 0 360 126" version="1.1" xmlns="http://www.w3.org/2000/svg" xmlns:xlink="http://www.w3.org/1999/xlink">
    <!-- Generator: Sketch 52.6 (67491) - http://www.bohemiancoding.com/sketch -->
    <title>Formal_Viterbi_GoldOnCard</title>
    <desc>Created with Sketch.</desc>
    <g id="Formal_Viterbi_GoldOnCard" stroke="none" stroke-width="1" fill="none" fill-rule="evenodd">
        <polygon id="Fill-1" fill="#9D1535" points="0 125.94 360 125.94 360 0 0 0"></polygon>
        <path d="M148.559,25.474 C148.559,25.177 148.614,25.06 148.97,25.06 C149.555,25.06 151.493,25.239 156.078,25.237 C161.008,25.237 163.649,25.06 164.177,25.06 C164.702,25.06 164.765,25.237 164.765,25.474 L164.765,26.822 C164.765,27.115 164.702,27.351 164.296,27.351 L161.476,27.351 C159.836,27.351 159.01,27.882 159.011,28.878 C159.011,29.347 159.07,30.052 159.245,30.877 C159.601,32.989 161.771,39.977 162.831,43.269 C163.53,45.497 166.944,55.598 168.291,59.18 L168.41,59.18 C169.641,56.422 174.225,44.323 174.693,42.972 C175.281,41.388 177.509,34.632 178.391,32.048 C178.86,30.583 179.216,29.523 179.216,28.702 C179.212,27.995 178.801,27.35 177.337,27.35 L175.806,27.35 C175.571,27.35 175.512,27.174 175.512,26.821 L175.512,25.472 C175.512,25.177 175.571,25.058 175.865,25.058 C176.396,25.058 179.094,25.235 182.797,25.235 C187.08,25.235 188.551,25.058 189.077,25.058 C189.432,25.058 189.489,25.175 189.489,25.472 L189.489,26.939 C189.489,27.171 189.432,27.35 189.077,27.35 L187.496,27.35 C185.555,27.35 184.441,28.288 183.326,29.641 C181.801,31.521 177.099,43.558 176.103,46.026 C175.396,47.964 167.822,66.637 167.525,67.227 C167.295,67.695 167.001,67.99 166.705,67.99 C166.237,67.99 166.002,67.402 165.706,66.641 C163.831,61.237 159.07,47.849 158.307,45.731 L157.723,43.737 C156.313,39.566 153.551,31.054 152.788,29.289 C152.196,27.936 151.609,27.354 150.376,27.354 L148.852,27.354 C148.614,27.354 148.559,27.175 148.559,26.94 L148.559,25.474" id="Fill-3" fill="#FFFFFE"></path>
        <path d="M185.393,49.726 C185.393,47.727 185.041,46.673 182.107,46.2 C181.69,46.142 181.576,46.023 181.576,45.789 L181.576,45.262 C181.576,45.085 181.69,44.97 181.988,44.847 C183.866,44.144 186.099,43.204 188.33,41.974 C188.799,41.739 189.096,41.622 189.445,41.622 C189.736,41.622 189.799,41.915 189.736,42.325 C189.621,43.322 189.621,47.022 189.626,51.899 L189.626,58.299 C189.626,60.588 189.626,62.704 189.68,63.35 C189.799,64.461 189.975,64.877 190.62,64.877 L193.321,64.877 C193.79,64.877 193.91,65.053 193.91,65.402 L193.91,66.4 C193.91,66.81 193.79,66.988 193.384,66.988 C192.916,66.988 190.209,66.81 187.746,66.81 C184.335,66.812 182.048,66.992 181.401,66.992 C181.107,66.992 180.932,66.869 180.932,66.519 L180.932,65.348 C180.932,64.992 181.107,64.877 181.52,64.877 L184.396,64.877 C185.041,64.877 185.279,64.641 185.339,63.702 C185.396,61.942 185.396,60.12 185.396,58.358 L185.393,49.726" id="Fill-4" fill="#FFFFFE"></path>
        <path d="M184.082,35.998 C184.082,34.527 185.319,32.944 187.666,32.944 C189.721,32.942 190.72,34.526 190.72,35.822 C190.72,37.346 189.664,39.051 187.315,39.051 C186.021,39.051 184.082,37.878 184.082,35.998" id="Fill-5" fill="#FFFFFE"></path>
        <path d="M284.442,49.726 C284.442,47.727 284.09,46.673 281.151,46.2 C280.743,46.142 280.625,46.023 280.625,45.789 L280.625,45.262 C280.625,45.085 280.743,44.97 281.041,44.847 C282.916,44.144 285.146,43.204 287.379,41.974 C287.848,41.739 288.145,41.622 288.495,41.622 C288.789,41.622 288.852,41.915 288.789,42.325 C288.67,43.322 288.67,47.022 288.674,51.899 L288.674,58.299 C288.674,60.588 288.674,62.704 288.73,63.35 C288.852,64.461 289.023,64.877 289.672,64.877 L292.374,64.877 C292.844,64.877 292.959,65.053 292.959,65.402 L292.959,66.4 C292.959,66.81 292.844,66.988 292.433,66.988 C291.963,66.988 289.258,66.81 286.794,66.81 C283.387,66.812 281.098,66.992 280.45,66.992 C280.156,66.992 279.979,66.869 279.979,66.519 L279.979,65.348 C279.979,64.992 280.156,64.877 280.572,64.877 L283.446,64.877 C284.09,64.877 284.322,64.641 284.387,63.702 C284.444,61.942 284.444,60.12 284.444,58.358 L284.442,49.726" id="Fill-6" fill="#FFFFFE"></path>
        <path d="M283.134,35.998 C283.134,34.527 284.367,32.944 286.716,32.944 C288.77,32.942 289.771,34.526 289.771,35.822 C289.771,37.346 288.715,39.051 286.365,39.051 C285.072,39.051 283.134,37.878 283.134,35.998" id="Fill-7" fill="#FFFFFE"></path>
        <path d="M202.658,59.473 C202.658,63.877 204.651,64.643 205.713,64.643 C207.066,64.643 208.768,64.406 209.586,63.875 C209.882,63.702 210.116,63.76 210.292,63.995 L210.588,64.519 C210.761,64.754 210.646,64.99 210.465,65.168 C209.882,65.756 207.472,67.519 203.949,67.519 C201.07,67.519 198.252,64.756 198.252,62.528 C198.252,60.118 198.433,54.948 198.433,54.127 L198.433,52.836 C198.433,51.778 198.485,47.845 198.548,45.378 L194.963,45.378 C194.435,45.378 194.082,45.144 194.082,44.671 C194.082,44.202 194.435,44.026 195.138,43.616 C196.55,42.795 201.07,38.214 201.836,36.216 C202.008,35.747 202.305,35.63 202.658,35.63 C203.127,35.63 203.246,36.042 203.246,36.511 L202.948,42.325 L211.115,42.325 C211.464,42.325 211.643,42.618 211.522,42.854 L210.939,44.905 C210.876,45.203 210.761,45.374 210.408,45.374 L202.836,45.378 C202.715,48.079 202.658,50.897 202.658,53.6 L202.658,59.473" id="Fill-8" fill="#FFFFFE"></path>
        <path d="M217.043,51.192 C216.924,51.717 216.865,52.661 216.865,54.01 C216.865,59.766 220.51,64.107 225.208,64.107 C228.789,64.107 231.313,62.053 232.313,60.116 C232.43,59.881 232.664,59.764 232.842,59.823 L233.602,60.235 C233.785,60.291 233.897,60.469 233.602,61.114 C232.547,63.465 229.492,67.516 224.267,67.516 C220.918,67.516 217.221,66.519 215.044,63.344 C212.99,60.352 212.463,58.18 212.463,54.069 C212.463,51.778 213.049,47.845 216.158,44.729 C218.684,42.149 221.622,41.617 224.559,41.617 C231.313,41.616 233.191,47.96 233.191,50.251 C233.191,51.073 232.488,51.19 231.547,51.19 L217.043,51.192 Z M226.38,49.429 C227.495,49.429 227.962,49.136 227.962,48.608 C227.962,47.254 227.261,43.381 223.442,43.381 C220.859,43.381 218.396,45.086 217.276,49.431 L226.38,49.429 Z" id="Fill-9" fill="#FFFFFE"></path>
        <path d="M239.824,51.19 C239.824,48.194 239.354,47.606 237.712,46.727 L236.594,46.141 C236.244,46.022 236.124,45.964 236.124,45.726 L236.124,45.374 C236.124,45.14 236.244,45.026 236.594,44.847 L242.408,41.852 C242.76,41.676 242.994,41.616 243.229,41.616 C243.583,41.616 243.641,41.969 243.641,42.321 L243.932,46.375 L244.17,46.375 C245.93,43.673 248.692,41.265 251.219,41.265 C253.215,41.265 254.21,42.495 254.21,43.849 C254.21,45.55 252.801,46.726 251.743,46.726 C251.103,46.726 250.516,46.491 250.043,46.257 C249.574,45.964 248.867,45.788 248.104,45.788 C247.164,45.788 245.639,46.375 244.639,48.255 C244.289,48.896 244.052,49.958 244.055,50.134 L244.055,62.465 C244.055,64.283 244.467,64.871 245.698,64.871 L248.459,64.871 C248.813,64.871 248.871,65.049 248.871,65.4 L248.871,66.459 C248.871,66.81 248.813,66.988 248.578,66.988 C248.224,66.988 245.523,66.81 242.35,66.81 C238.712,66.81 236.244,66.988 235.891,66.988 C235.656,66.988 235.541,66.869 235.541,66.398 L235.541,65.4 C235.541,64.988 235.656,64.871 236.188,64.871 L238.473,64.871 C239.355,64.871 239.768,64.519 239.768,63.758 C239.824,61.819 239.824,59.764 239.824,56.709 L239.824,51.19" id="Fill-10" fill="#FFFFFE"></path>
        <path d="M256.617,35.155 C256.617,31.222 255.97,30.397 253.855,29.693 L253.27,29.518 C252.624,29.341 252.509,29.225 252.509,29.048 L252.509,28.579 C252.509,28.401 252.624,28.286 252.978,28.11 C254.679,27.345 257.734,25.819 259.203,24.88 C259.613,24.583 260.082,24.349 260.432,24.349 C260.842,24.349 260.961,24.645 260.903,25.351 C260.842,25.819 260.846,32.513 260.846,37.739 L260.846,44.554 C262.725,42.731 266.071,41.616 268.949,41.616 C274.117,41.614 279.699,45.784 279.699,54.18 C279.699,61.053 274.18,67.512 267.48,67.512 C264.196,67.512 261.901,66.809 260.555,65.986 L258.203,67.279 C257.973,67.457 257.793,67.514 257.438,67.457 L256.734,67.279 C256.504,67.223 256.438,67.103 256.504,66.809 C256.62,65.986 256.62,61.114 256.62,56.829 L256.617,35.155 Z M260.848,54.182 C260.848,59.059 261.026,60.819 261.729,62.698 C262.314,64.107 264.784,65.633 267.306,65.633 C270.83,65.633 275.177,63.229 275.177,55.534 C275.177,49.837 272.18,44.436 266.429,44.436 C264.249,44.436 262.136,45.197 260.846,46.551 L260.848,54.182 Z" id="Fill-11" fill="#FFFFFE"></path>
        <path d="M40.369,30.067 C40.369,28.046 39.893,27.097 38.347,27.097 L35.611,27.097 C35.254,27.097 35.136,26.975 35.136,26.559 L35.136,25.188 C35.136,24.836 35.254,24.718 35.727,24.718 C36.325,24.718 39.176,24.895 44.884,24.895 C49.875,24.895 52.732,24.718 53.445,24.718 C53.801,24.718 53.92,24.836 53.92,25.13 L53.92,26.618 C53.92,26.975 53.801,27.097 53.445,27.097 L50.949,27.097 C49.163,27.097 48.096,28.161 48.033,29.411 C47.977,30.124 47.857,33.692 47.857,37.141 L47.857,44.513 C47.857,47.483 47.913,51.706 48.033,53.606 C48.215,56.34 48.689,59.075 50.113,60.975 C52.135,63.707 55.344,64.66 58.198,64.66 C60.935,64.66 64.264,63.594 66.164,61.809 C68.424,59.551 69.614,56.102 69.614,51.76 L69.614,41.061 C69.614,36.31 69.139,31.077 68.959,29.708 C68.779,28.161 67.828,27.097 66.52,27.097 L64.383,27.097 C64.025,27.097 63.906,26.915 63.906,26.676 L63.906,25.188 C63.906,24.836 64.025,24.718 64.383,24.718 C64.977,24.718 67.71,24.895 71.636,24.895 C75.319,24.895 77.221,24.718 77.696,24.718 C78.231,24.718 78.293,24.895 78.293,25.188 L78.293,26.559 C78.293,26.915 78.231,27.097 77.935,27.097 L75.796,27.097 C73.658,27.097 73.415,28.757 73.298,29.411 C73.182,30.124 73.182,38.448 73.182,39.221 C73.182,40.052 73.062,50.395 72.823,52.772 C72.467,57.649 71.039,61.334 67.828,64.185 C65.331,66.443 61.532,67.873 57.01,67.873 C54.156,67.873 50.711,67.396 48.451,66.443 C45.005,65.018 42.628,62.284 41.435,58.477 C40.602,55.866 40.369,51.942 40.369,44.153 L40.369,30.067" id="Fill-12" fill="#F6BF35"></path>
        <path d="M79.96,53.723 C80.195,53.723 80.313,53.844 80.313,54.2 C80.434,56.102 80.909,58.362 82.574,60.977 C84.355,63.831 87.448,65.254 90.422,65.254 C93.632,65.254 98.15,63.235 98.15,58.299 C98.15,52.831 95.652,51.049 89.352,48.673 C87.448,47.958 83.525,46.294 80.67,43.68 C78.65,41.776 77.701,38.805 77.701,35.177 C77.701,31.849 79.008,29.114 81.86,26.856 C84.24,24.835 86.853,24.001 90.302,24.001 C94.225,24.001 96.602,24.954 97.79,25.429 C98.388,25.667 98.74,25.55 99.039,25.251 L99.813,24.478 C100.052,24.239 100.288,24.122 100.643,24.122 C101.002,24.122 101.12,24.478 101.12,25.075 C101.12,26.024 102.071,34.347 102.071,34.938 C102.071,35.177 101.952,35.296 101.715,35.358 L100.762,35.652 C100.526,35.712 100.288,35.652 100.171,35.296 C99.576,33.632 98.625,31.257 96.482,28.995 C94.938,27.332 93.035,26.499 90.302,26.499 C85.546,26.499 83.644,30.304 83.644,32.505 C83.644,34.526 83.882,36.308 85.309,37.852 C86.853,39.397 90.185,40.825 92.56,41.54 C96.008,42.606 98.863,43.798 101.12,46.177 C103.023,48.196 104.094,50.692 104.094,54.674 C104.094,61.926 99.338,67.871 91.49,67.871 C86.615,67.871 83.765,66.803 81.386,65.016 C80.67,64.541 80.313,64.305 79.96,64.305 C79.602,64.305 79.364,64.779 79.008,65.375 C78.65,65.969 78.412,66.09 77.938,66.09 C77.463,66.09 77.224,65.728 77.224,65.137 C77.343,64.424 78.176,54.793 78.291,54.081 C78.35,53.723 78.412,53.604 78.65,53.604 L79.96,53.723" id="Fill-13" fill="#F6BF35"></path>
        <path d="M144.753,57.291 C144.931,57.467 144.989,57.647 144.872,57.883 C141.305,62.998 135.598,67.871 127.157,67.871 C119.551,67.871 115.268,65.611 111.586,62.284 C107.183,58.358 105.162,51.465 105.162,46.233 C105.162,40.409 107.064,34.82 111.227,30.304 C114.437,26.856 119.551,24.003 126.679,24.003 C132.149,24.003 136.549,25.667 138.688,26.856 C139.523,27.332 139.761,27.332 139.877,26.856 L140.353,25.311 C140.473,24.954 140.59,24.954 141.305,24.954 C142.019,24.954 142.136,25.071 142.136,25.905 C142.136,26.975 143.326,36.485 143.563,38.269 C143.619,38.626 143.563,38.804 143.326,38.863 L142.198,39.22 C141.898,39.339 141.721,39.102 141.544,38.626 C140.829,36.485 139.4,33.514 136.905,30.899 C134.291,28.401 131.197,26.5 126.564,26.5 C117.053,26.5 113.127,35.06 113.127,43.62 C113.127,47.306 114.198,54.319 118.6,59.075 C122.521,63.235 125.969,63.711 128.823,63.711 C135.361,63.711 140.532,60.44 143.03,56.817 C143.326,56.399 143.563,56.221 143.742,56.399 L144.753,57.291" id="Fill-14" fill="#F6BF35"></path>
        <path d="M156.303,96.068 C156.076,95.897 155.961,95.841 155.867,95.841 C155.752,95.841 155.676,95.974 155.563,96.163 C155.449,96.372 155.354,96.392 155.221,96.392 C155.105,96.392 155.012,96.296 155.049,96.087 C155.125,95.612 155.314,93.2 155.373,92.649 C155.391,92.535 155.43,92.535 155.506,92.535 L155.791,92.554 C155.867,92.554 155.904,92.593 155.904,92.706 C155.924,93.313 155.961,93.94 156.588,94.909 C157.158,95.803 158.203,96.315 159.248,96.315 C160.387,96.315 161.832,95.612 161.832,93.903 C161.832,91.946 160.426,91.224 158.906,90.692 C158.316,90.483 156.949,90.009 156.133,89.153 C155.506,88.526 155.182,87.634 155.182,86.38 C155.182,85.431 155.771,84.499 156.359,83.948 C157.045,83.302 157.994,83.036 159.02,83.036 C160.104,83.036 160.939,83.359 161.262,83.511 C161.432,83.606 161.527,83.587 161.623,83.493 L161.869,83.265 C161.965,83.188 162.021,83.15 162.117,83.15 C162.211,83.15 162.268,83.302 162.268,83.474 C162.268,84.138 162.516,86.076 162.535,86.494 C162.535,86.589 162.516,86.627 162.439,86.646 L162.211,86.703 C162.154,86.722 162.117,86.703 162.098,86.646 C161.945,86.095 161.699,85.354 160.92,84.537 C160.406,83.986 159.742,83.72 158.85,83.72 C157.158,83.72 156.551,84.974 156.551,85.942 C156.551,86.476 156.664,87.102 157.139,87.596 C157.689,88.147 158.754,88.564 159.305,88.735 C160.615,89.153 161.68,89.477 162.363,90.312 C162.857,90.901 163.199,91.642 163.199,92.896 C163.199,95.138 161.832,97.057 159.324,97.057 C157.994,97.057 157.063,96.657 156.303,96.068" id="Fill-15" fill="#FFFFFE"></path>
        <path d="M165.748,92.175 C165.748,93.2 166.203,94.358 166.717,95.061 C167.344,95.878 168.143,96.03 168.787,96.03 C169.738,96.03 170.232,95.821 170.877,95.214 C170.916,95.176 170.973,95.157 171.029,95.214 L171.219,95.403 C171.295,95.479 171.314,95.536 171.219,95.651 C170.668,96.277 169.453,96.999 168.16,96.999 C167.154,96.999 166.09,96.771 165.217,95.669 C164.514,94.739 164.361,93.94 164.361,93.086 C164.361,90.863 165.92,88.622 168.426,88.622 C170.402,88.622 171.01,89.762 171.01,90.161 C170.992,90.597 170.707,90.825 170.307,90.825 C169.871,90.825 169.547,90.579 169.262,90.065 C168.844,89.286 168.445,89.229 167.99,89.229 C166.906,89.229 165.748,90.218 165.748,92.175" id="Fill-16" fill="#FFFFFE"></path>
        <path d="M173.238,86.418 C173.238,85.259 173.01,85.05 172.326,84.822 L172.004,84.708 C171.889,84.671 171.871,84.651 171.871,84.595 L171.871,84.423 C171.871,84.347 171.928,84.328 172.098,84.233 L174.074,83.188 C174.227,83.112 174.359,83.036 174.512,83.036 C174.625,83.036 174.701,83.188 174.664,83.511 C174.625,83.835 174.605,87.69 174.605,88.641 L174.605,89.856 L174.701,89.856 C175.365,89.059 176.469,88.622 177.305,88.622 C178.102,88.622 178.652,88.868 179.184,89.382 C180.039,90.18 180.002,91.148 180.002,92.175 L180.002,93.257 C180.002,94.321 180.039,95.499 180.039,95.859 C180.039,96.087 180.344,96.145 180.742,96.145 L181.064,96.145 C181.217,96.145 181.273,96.183 181.273,96.315 L181.273,96.601 C181.273,96.753 181.236,96.829 181.123,96.829 C180.99,96.829 180.381,96.771 179.299,96.771 C178.367,96.771 177.684,96.829 177.514,96.829 C177.379,96.829 177.342,96.771 177.342,96.62 L177.342,96.296 C177.342,96.202 177.361,96.145 177.475,96.145 L177.912,96.145 C178.234,96.145 178.615,96.106 178.633,95.784 C178.652,95.518 178.633,94.511 178.633,93.903 L178.633,92.364 C178.633,91.3 178.559,90.54 178.006,90.027 C177.627,89.667 177.229,89.495 176.752,89.495 C176.201,89.495 175.518,89.685 174.986,90.294 C174.814,90.503 174.605,90.882 174.605,91.224 L174.605,95.366 C174.605,95.974 174.664,96.145 175.023,96.145 L175.594,96.145 C175.727,96.145 175.803,96.183 175.803,96.296 L175.803,96.62 C175.803,96.753 175.766,96.829 175.65,96.829 C175.5,96.829 174.721,96.771 173.846,96.771 C172.896,96.771 172.174,96.829 172.004,96.829 C171.928,96.829 171.871,96.771 171.871,96.639 L171.871,96.296 C171.871,96.163 171.947,96.145 172.156,96.145 L172.555,96.145 C172.859,96.145 173.143,96.068 173.182,95.841 C173.238,95.479 173.238,93.39 173.238,92.155 L173.238,86.418" id="Fill-17" fill="#FFFFFE"></path>
        <path d="M188.816,92.63 C188.816,90.521 187.279,89.191 186.311,89.191 C185.797,89.191 185.303,89.306 184.848,89.8 C184.105,90.56 183.84,91.339 183.84,92.782 C183.84,93.846 183.953,94.567 184.563,95.442 C184.998,96.068 185.551,96.43 186.443,96.43 C187.887,96.43 188.816,94.663 188.816,92.63 Z M183.328,95.688 C182.453,94.644 182.283,93.94 182.283,92.593 C182.283,91.623 182.795,90.407 183.916,89.534 C184.904,88.773 185.834,88.622 186.461,88.622 C187.506,88.622 188.551,89.153 189.121,89.724 C189.977,90.597 190.414,91.585 190.414,92.82 C190.414,94.891 188.551,96.999 186.215,96.999 C185.303,96.999 184.125,96.639 183.328,95.688 Z" id="Fill-18" fill="#FFFFFE"></path>
        <path d="M198.279,92.63 C198.279,90.521 196.74,89.191 195.771,89.191 C195.258,89.191 194.764,89.306 194.309,89.8 C193.568,90.56 193.301,91.339 193.301,92.782 C193.301,93.846 193.416,94.567 194.023,95.442 C194.461,96.068 195.012,96.43 195.904,96.43 C197.348,96.43 198.279,94.663 198.279,92.63 Z M192.789,95.688 C191.914,94.644 191.744,93.94 191.744,92.593 C191.744,91.623 192.256,90.407 193.377,89.534 C194.365,88.773 195.297,88.622 195.924,88.622 C196.969,88.622 198.014,89.153 198.582,89.724 C199.438,90.597 199.875,91.585 199.875,92.82 C199.875,94.891 198.014,96.999 195.676,96.999 C194.764,96.999 193.586,96.639 192.789,95.688 Z" id="Fill-19" fill="#FFFFFE"></path>
        <path d="M203.732,91.11 C203.732,92.099 203.732,94.967 203.752,95.556 C203.77,95.878 203.846,96.145 204.246,96.145 L205.1,96.145 C205.271,96.145 205.309,96.202 205.309,96.315 L205.309,96.639 C205.309,96.753 205.271,96.829 205.195,96.829 C205.063,96.829 204.227,96.771 203.049,96.771 C201.832,96.771 201.072,96.829 200.902,96.829 C200.807,96.829 200.77,96.753 200.77,96.639 L200.77,96.315 C200.77,96.183 200.807,96.145 201.016,96.145 L201.928,96.145 C202.137,96.145 202.326,96.012 202.346,95.669 C202.365,95.081 202.365,91.813 202.365,90.712 L202.365,89.515 C202.365,88.165 202.346,86.436 202.307,85.942 C202.27,85.298 201.965,84.993 201.357,84.804 L200.979,84.671 C200.883,84.632 200.863,84.613 200.863,84.575 L200.863,84.423 C200.863,84.366 200.92,84.328 201.035,84.29 C201.699,83.986 202.555,83.644 203.258,83.188 C203.428,83.075 203.543,83.036 203.656,83.036 C203.789,83.036 203.828,83.132 203.809,83.378 C203.789,84.423 203.732,88.374 203.732,89.419 L203.732,91.11" id="Fill-20" fill="#FFFFFE"></path>
        <path d="M216.67,92.63 C216.67,90.521 215.133,89.191 214.164,89.191 C213.65,89.191 213.156,89.306 212.701,89.8 C211.959,90.56 211.693,91.339 211.693,92.782 C211.693,93.846 211.807,94.567 212.416,95.442 C212.852,96.068 213.404,96.43 214.297,96.43 C215.74,96.43 216.67,94.663 216.67,92.63 Z M211.182,95.688 C210.307,94.644 210.137,93.94 210.137,92.593 C210.137,91.623 210.648,90.407 211.77,89.534 C212.758,88.773 213.688,88.622 214.314,88.622 C215.359,88.622 216.404,89.153 216.975,89.724 C217.83,90.597 218.268,91.585 218.268,92.82 C218.268,94.891 216.404,96.999 214.068,96.999 C213.156,96.999 211.979,96.639 211.182,95.688 Z" id="Fill-21" fill="#FFFFFE"></path>
        <path d="M220.965,89.762 L219.654,89.762 C219.559,89.762 219.521,89.724 219.559,89.553 L219.635,88.982 C219.654,88.868 219.711,88.85 219.863,88.85 L220.965,88.85 L220.965,88.489 C220.965,86.608 221.496,85.373 222.238,84.537 C223.244,83.436 224.289,83.036 225.354,83.036 C226.246,83.036 227.082,83.378 227.082,84.101 C227.082,84.556 226.588,84.917 226.285,84.917 C226.094,84.917 225.904,84.88 225.752,84.804 C225.582,84.708 225.373,84.462 225.297,84.366 C225.049,84.062 224.783,83.929 224.422,83.929 C223.928,83.929 223.416,84.062 222.998,84.595 C222.295,85.487 222.332,87.14 222.332,88.47 L222.332,88.85 L224.631,88.85 C224.764,88.85 224.783,88.964 224.764,89.04 L224.67,89.667 C224.65,89.743 224.574,89.762 224.422,89.762 L222.332,89.762 L222.332,91.452 C222.332,93.694 222.332,95.442 222.352,95.651 C222.391,95.974 222.447,96.145 222.846,96.145 L223.928,96.145 C224.1,96.145 224.137,96.183 224.137,96.296 L224.137,96.601 C224.137,96.753 224.1,96.829 224.004,96.829 C223.891,96.829 223.188,96.771 221.725,96.771 C220.68,96.771 219.711,96.829 219.559,96.829 C219.445,96.829 219.408,96.79 219.408,96.695 L219.408,96.277 C219.408,96.183 219.445,96.145 219.598,96.145 L220.51,96.145 C220.869,96.145 220.945,95.917 220.965,95.479 L220.965,89.762" id="Fill-22" fill="#FFFFFE"></path>
        <path d="M234.17,89.495 C234.322,89.495 236.354,89.419 236.582,89.382 C237.133,89.286 237.285,89.135 237.455,88.546 C237.514,88.356 237.59,87.976 237.607,87.614 C237.607,87.52 237.664,87.481 237.74,87.481 L238.217,87.501 C238.311,87.501 238.35,87.577 238.33,87.653 C238.273,87.976 238.273,89.534 238.273,89.818 C238.273,90.483 238.35,91.396 238.387,91.794 C238.387,91.89 238.35,91.927 238.273,91.946 L237.855,92.003 C237.76,92.022 237.723,91.966 237.703,91.832 C237.664,91.585 237.551,91.148 237.494,90.939 C237.381,90.54 237.172,90.255 236.678,90.198 C235.785,90.104 234.473,90.104 234.17,90.104 L234.17,91.281 C234.17,92.308 234.207,94.149 234.207,94.53 C234.227,95.518 234.701,95.897 235.291,96.012 C235.67,96.087 236.221,96.145 236.695,96.145 C237.02,96.145 237.969,96.126 238.367,96.087 C238.691,96.05 239.527,95.841 240.021,95.423 C240.248,95.233 241.313,93.864 241.578,93.428 C241.635,93.333 241.693,93.257 241.807,93.313 L242.109,93.485 C242.205,93.542 242.205,93.599 242.148,93.751 L241.141,96.544 C241.084,96.714 240.951,96.829 240.723,96.829 C240.629,96.829 240.211,96.81 239.07,96.79 C237.932,96.79 236.088,96.771 233.125,96.771 C232.422,96.771 231.891,96.79 231.51,96.79 C231.111,96.81 230.863,96.829 230.693,96.829 C230.578,96.829 230.521,96.79 230.521,96.695 L230.521,96.183 C230.521,96.106 230.578,96.087 230.713,96.087 L231.473,96.087 C232.346,96.087 232.422,95.954 232.422,95.252 L232.422,88.888 C232.422,87.312 232.383,84.936 232.365,84.746 C232.289,84.138 232.1,84.005 231.396,84.005 L230.713,84.005 C230.617,84.005 230.561,83.986 230.561,83.872 L230.561,83.359 C230.561,83.302 230.598,83.265 230.693,83.265 C231.111,83.265 231.775,83.321 233.029,83.321 L233.865,83.321 C235.746,83.321 237.627,83.302 239.508,83.302 C239.813,83.302 240.172,83.265 240.268,83.265 C240.363,83.265 240.4,83.302 240.42,83.359 C240.496,83.626 241.332,86.228 241.389,86.418 C241.408,86.494 241.408,86.551 241.332,86.589 L241.047,86.741 C240.99,86.778 240.914,86.722 240.895,86.685 C240.857,86.608 239.451,84.804 238.994,84.519 C238.596,84.253 238.064,84.024 237.551,84.005 L234.17,83.929 L234.17,89.495" id="Fill-23" fill="#FFFFFE"></path>
        <path d="M250.268,95.745 C250.268,96.05 250.438,96.145 250.686,96.145 L251.293,96.145 C251.465,96.145 251.502,96.202 251.502,96.315 L251.502,96.62 C251.502,96.753 251.465,96.829 251.35,96.829 C251.217,96.829 250.629,96.771 249.545,96.771 C248.576,96.771 247.969,96.829 247.836,96.829 C247.723,96.829 247.684,96.771 247.684,96.62 L247.684,96.315 C247.684,96.183 247.74,96.145 247.932,96.145 L248.482,96.145 C248.691,96.145 248.842,96.05 248.861,95.708 C248.881,95.214 248.9,94.606 248.9,94.112 L248.9,91.604 C248.9,90.845 248.9,90.294 248.348,89.894 C247.893,89.553 247.438,89.553 246.961,89.553 C246.658,89.553 245.992,89.685 245.424,90.294 C245.043,90.712 244.986,91.224 244.986,91.585 L244.986,95.518 C244.986,96.03 245.043,96.145 245.441,96.145 L245.916,96.145 C246.068,96.145 246.107,96.202 246.107,96.335 L246.107,96.657 C246.107,96.771 246.068,96.829 245.975,96.829 C245.842,96.829 245.328,96.771 244.32,96.771 C243.352,96.771 242.744,96.829 242.631,96.829 C242.535,96.829 242.498,96.771 242.498,96.657 L242.498,96.315 C242.498,96.202 242.535,96.145 242.688,96.145 L243.238,96.145 C243.484,96.145 243.619,96.087 243.619,95.765 L243.619,91.319 C243.619,90.749 243.314,90.427 242.84,90.198 L242.688,90.122 C242.555,90.065 242.535,90.009 242.535,89.952 L242.535,89.856 C242.535,89.762 242.611,89.704 242.707,89.667 L244.34,88.755 C244.492,88.679 244.605,88.622 244.682,88.622 C244.777,88.622 244.814,88.698 244.834,88.85 L244.967,90.009 L245.006,90.009 C245.557,89.325 246.658,88.622 247.607,88.622 C248.178,88.622 248.766,88.735 249.223,89.04 C249.793,89.419 250.268,90.37 250.268,90.845 L250.268,95.745" id="Fill-24" fill="#FFFFFE"></path>
        <path d="M257.602,91.281 C257.602,90.445 257.432,89.952 257.088,89.571 C256.842,89.325 256.461,89.153 256.178,89.153 C255.74,89.153 255.283,89.229 254.828,89.685 C254.221,90.331 254.145,91.205 254.145,91.927 C254.145,92.573 254.354,93.162 254.752,93.58 C255.094,93.903 255.436,94.055 255.893,94.055 C257.184,94.055 257.602,92.477 257.602,91.281 Z M259.369,99.374 C259.369,98.253 258.514,97.398 256.613,97.531 L254.791,97.665 C254.201,97.816 253.27,98.462 253.27,99.488 C253.27,99.963 253.631,100.532 254.012,100.799 C254.639,101.235 255.322,101.331 256.67,101.331 C257.373,101.331 259.463,100.837 259.369,99.374 Z M253.1,101.331 C252.416,100.913 252.131,100.419 252.131,99.792 C252.131,98.727 253.213,97.911 254.125,97.513 L254.125,97.437 C253.328,97.266 252.852,96.677 252.852,96.106 C252.852,95.194 253.896,94.549 254.563,94.302 L254.563,94.264 C253.82,93.94 252.795,93.067 252.795,91.376 C252.795,90.142 253.896,88.622 256.043,88.622 C257.488,88.622 258.248,89.495 258.438,89.724 C258.951,89.362 259.596,88.982 260.223,88.982 C260.85,88.982 261.154,89.4 261.115,89.78 C261.115,90.142 260.813,90.483 260.375,90.483 C260.053,90.483 259.863,90.331 259.711,90.198 C259.596,90.122 259.463,90.027 259.311,90.027 C259.178,90.027 258.951,90.027 258.703,90.142 C258.855,90.521 258.988,90.939 258.988,91.585 C258.988,92.326 258.779,93.048 258.285,93.637 C257.791,94.188 256.709,94.587 256.082,94.587 C255.664,94.587 255.398,94.567 255.113,94.491 C254.732,94.644 254.105,95.024 254.105,95.556 C254.105,96.335 255.057,96.277 256.328,96.202 C257.887,96.126 258.836,96.296 259.596,96.886 C260.414,97.493 260.508,98.253 260.527,98.709 C260.527,99.602 260.205,100.343 259.254,101.046 C258.76,101.407 257.621,101.938 256.006,101.938 C255.094,101.938 254.012,101.844 253.1,101.331 Z" id="Fill-25" fill="#FFFFFE"></path>
        <path d="M262.162,85.449 C262.162,84.974 262.561,84.462 263.32,84.462 C263.986,84.462 264.309,84.974 264.309,85.392 C264.309,85.886 263.967,86.436 263.207,86.436 C262.789,86.436 262.162,86.058 262.162,85.449 Z M263.018,91.243 C263.018,90.597 262.902,90.255 261.953,90.104 C261.82,90.085 261.783,90.046 261.783,89.971 L261.783,89.8 C261.783,89.743 261.82,89.704 261.916,89.667 C262.523,89.438 263.244,89.135 263.967,88.735 C264.119,88.659 264.215,88.622 264.328,88.622 C264.424,88.622 264.441,88.717 264.424,88.85 C264.385,89.173 264.385,90.37 264.385,91.946 L264.385,94.017 C264.385,94.758 264.385,95.442 264.404,95.651 C264.441,96.012 264.498,96.145 264.707,96.145 L265.582,96.145 C265.734,96.145 265.771,96.202 265.771,96.315 L265.771,96.639 C265.771,96.771 265.734,96.829 265.602,96.829 C265.449,96.829 264.574,96.771 263.777,96.771 C262.676,96.771 261.934,96.829 261.725,96.829 C261.631,96.829 261.574,96.79 261.574,96.677 L261.574,96.296 C261.574,96.183 261.631,96.145 261.764,96.145 L262.693,96.145 C262.902,96.145 262.979,96.068 262.998,95.765 C263.018,95.194 263.018,94.606 263.018,94.036 L263.018,91.243 Z" id="Fill-26" fill="#FFFFFE"></path>
        <path d="M274.662,95.745 C274.662,96.05 274.834,96.145 275.08,96.145 L275.689,96.145 C275.859,96.145 275.898,96.202 275.898,96.315 L275.898,96.62 C275.898,96.753 275.859,96.829 275.746,96.829 C275.613,96.829 275.023,96.771 273.941,96.771 C272.973,96.771 272.363,96.829 272.23,96.829 C272.117,96.829 272.08,96.771 272.08,96.62 L272.08,96.315 C272.08,96.183 272.137,96.145 272.326,96.145 L272.877,96.145 C273.086,96.145 273.238,96.05 273.258,95.708 C273.275,95.214 273.295,94.606 273.295,94.112 L273.295,91.604 C273.295,90.845 273.295,90.294 272.744,89.894 C272.289,89.553 271.832,89.553 271.357,89.553 C271.053,89.553 270.389,89.685 269.818,90.294 C269.439,90.712 269.381,91.224 269.381,91.585 L269.381,95.518 C269.381,96.03 269.439,96.145 269.838,96.145 L270.313,96.145 C270.465,96.145 270.502,96.202 270.502,96.335 L270.502,96.657 C270.502,96.771 270.465,96.829 270.369,96.829 C270.236,96.829 269.723,96.771 268.717,96.771 C267.748,96.771 267.141,96.829 267.025,96.829 C266.932,96.829 266.893,96.771 266.893,96.657 L266.893,96.315 C266.893,96.202 266.932,96.145 267.082,96.145 L267.635,96.145 C267.881,96.145 268.014,96.087 268.014,95.765 L268.014,91.319 C268.014,90.749 267.709,90.427 267.234,90.198 L267.082,90.122 C266.949,90.065 266.932,90.009 266.932,89.952 L266.932,89.856 C266.932,89.762 267.008,89.704 267.102,89.667 L268.736,88.755 C268.889,88.679 269.002,88.622 269.078,88.622 C269.172,88.622 269.211,88.698 269.23,88.85 L269.363,90.009 L269.4,90.009 C269.951,89.325 271.053,88.622 272.004,88.622 C272.572,88.622 273.162,88.735 273.617,89.04 C274.188,89.419 274.662,90.37 274.662,90.845 L274.662,95.745" id="Fill-27" fill="#FFFFFE"></path>
        <path d="M281.465,91.148 C281.826,91.148 281.979,91.054 281.979,90.882 C281.979,90.445 281.75,89.191 280.516,89.191 C279.68,89.191 278.881,89.743 278.521,91.148 L281.465,91.148 Z M278.445,91.718 C278.406,91.89 278.389,92.193 278.389,92.63 C278.389,94.491 279.566,95.897 281.086,95.897 C282.244,95.897 283.061,95.233 283.385,94.606 C283.422,94.53 283.498,94.491 283.555,94.511 L283.803,94.644 C283.859,94.663 283.896,94.72 283.803,94.929 C283.459,95.688 282.473,96.999 280.781,96.999 C279.699,96.999 278.502,96.677 277.799,95.651 C277.135,94.682 276.963,93.979 276.963,92.649 C276.963,91.908 277.152,90.636 278.16,89.628 C278.977,88.792 279.926,88.622 280.877,88.622 C283.061,88.622 283.668,90.673 283.668,91.414 C283.668,91.681 283.441,91.718 283.137,91.718 L278.445,91.718 Z" id="Fill-28" fill="#FFFFFE"></path>
        <path d="M289.559,91.148 C289.92,91.148 290.072,91.054 290.072,90.882 C290.072,90.445 289.844,89.191 288.609,89.191 C287.773,89.191 286.977,89.743 286.615,91.148 L289.559,91.148 Z M286.539,91.718 C286.5,91.89 286.482,92.193 286.482,92.63 C286.482,94.491 287.66,95.897 289.18,95.897 C290.338,95.897 291.154,95.233 291.479,94.606 C291.516,94.53 291.592,94.491 291.648,94.511 L291.896,94.644 C291.953,94.663 291.99,94.72 291.896,94.929 C291.555,95.688 290.566,96.999 288.875,96.999 C287.793,96.999 286.596,96.677 285.893,95.651 C285.229,94.682 285.057,93.979 285.057,92.649 C285.057,91.908 285.248,90.636 286.254,89.628 C287.07,88.792 288.021,88.622 288.971,88.622 C291.154,88.622 291.764,90.673 291.764,91.414 C291.764,91.681 291.535,91.718 291.23,91.718 L286.539,91.718 Z" id="Fill-29" fill="#FFFFFE"></path>
        <path d="M294.291,91.718 C294.291,90.749 294.139,90.56 293.607,90.274 L293.246,90.085 C293.133,90.046 293.094,90.027 293.094,89.952 L293.094,89.837 C293.094,89.762 293.133,89.724 293.246,89.667 L295.127,88.698 C295.24,88.641 295.316,88.622 295.393,88.622 C295.506,88.622 295.525,88.735 295.525,88.85 L295.621,90.161 L295.697,90.161 C296.266,89.286 297.16,88.508 297.977,88.508 C298.623,88.508 298.945,88.907 298.945,89.344 C298.945,89.894 298.488,90.274 298.146,90.274 C297.938,90.274 297.748,90.198 297.596,90.122 C297.443,90.027 297.217,89.971 296.969,89.971 C296.666,89.971 296.172,90.161 295.848,90.769 C295.734,90.977 295.658,91.319 295.658,91.376 L295.658,95.366 C295.658,95.954 295.791,96.145 296.191,96.145 L297.084,96.145 C297.197,96.145 297.217,96.202 297.217,96.315 L297.217,96.657 C297.217,96.771 297.197,96.829 297.121,96.829 C297.008,96.829 296.133,96.771 295.107,96.771 C293.93,96.771 293.133,96.829 293.018,96.829 C292.941,96.829 292.904,96.79 292.904,96.639 L292.904,96.315 C292.904,96.183 292.941,96.145 293.113,96.145 L293.854,96.145 C294.139,96.145 294.271,96.03 294.271,95.784 C294.291,95.157 294.291,94.491 294.291,93.504 L294.291,91.718" id="Fill-30" fill="#FFFFFE"></path>
        <path d="M300.199,85.449 C300.199,84.974 300.6,84.462 301.359,84.462 C302.023,84.462 302.346,84.974 302.346,85.392 C302.346,85.886 302.004,86.436 301.244,86.436 C300.826,86.436 300.199,86.058 300.199,85.449 Z M301.055,91.243 C301.055,90.597 300.941,90.255 299.99,90.104 C299.857,90.085 299.82,90.046 299.82,89.971 L299.82,89.8 C299.82,89.743 299.857,89.704 299.953,89.667 C300.561,89.438 301.283,89.135 302.004,88.735 C302.156,88.659 302.252,88.622 302.365,88.622 C302.461,88.622 302.479,88.717 302.461,88.85 C302.422,89.173 302.422,90.37 302.422,91.946 L302.422,94.017 C302.422,94.758 302.422,95.442 302.441,95.651 C302.479,96.012 302.537,96.145 302.746,96.145 L303.619,96.145 C303.771,96.145 303.809,96.202 303.809,96.315 L303.809,96.639 C303.809,96.771 303.771,96.829 303.639,96.829 C303.486,96.829 302.613,96.771 301.814,96.771 C300.713,96.771 299.973,96.829 299.764,96.829 C299.668,96.829 299.611,96.79 299.611,96.677 L299.611,96.296 C299.611,96.183 299.668,96.145 299.801,96.145 L300.732,96.145 C300.941,96.145 301.018,96.068 301.035,95.765 C301.055,95.194 301.055,94.606 301.055,94.036 L301.055,91.243 Z" id="Fill-31" fill="#FFFFFE"></path>
        <path d="M312.701,95.745 C312.701,96.05 312.871,96.145 313.119,96.145 L313.727,96.145 C313.898,96.145 313.936,96.202 313.936,96.315 L313.936,96.62 C313.936,96.753 313.898,96.829 313.783,96.829 C313.65,96.829 313.063,96.771 311.979,96.771 C311.01,96.771 310.402,96.829 310.27,96.829 C310.154,96.829 310.117,96.771 310.117,96.62 L310.117,96.315 C310.117,96.183 310.174,96.145 310.363,96.145 L310.914,96.145 C311.123,96.145 311.275,96.05 311.295,95.708 C311.314,95.214 311.332,94.606 311.332,94.112 L311.332,91.604 C311.332,90.845 311.332,90.294 310.781,89.894 C310.326,89.553 309.869,89.553 309.395,89.553 C309.092,89.553 308.426,89.685 307.855,90.294 C307.477,90.712 307.42,91.224 307.42,91.585 L307.42,95.518 C307.42,96.03 307.477,96.145 307.875,96.145 L308.35,96.145 C308.502,96.145 308.541,96.202 308.541,96.335 L308.541,96.657 C308.541,96.771 308.502,96.829 308.408,96.829 C308.273,96.829 307.762,96.771 306.754,96.771 C305.785,96.771 305.178,96.829 305.064,96.829 C304.969,96.829 304.93,96.771 304.93,96.657 L304.93,96.315 C304.93,96.202 304.969,96.145 305.121,96.145 L305.672,96.145 C305.918,96.145 306.051,96.087 306.051,95.765 L306.051,91.319 C306.051,90.749 305.748,90.427 305.273,90.198 L305.121,90.122 C304.988,90.065 304.969,90.009 304.969,89.952 L304.969,89.856 C304.969,89.762 305.045,89.704 305.139,89.667 L306.773,88.755 C306.926,88.679 307.039,88.622 307.115,88.622 C307.211,88.622 307.248,88.698 307.268,88.85 L307.4,90.009 L307.438,90.009 C307.99,89.325 309.092,88.622 310.041,88.622 C310.611,88.622 311.199,88.735 311.656,89.04 C312.227,89.419 312.701,90.37 312.701,90.845 L312.701,95.745" id="Fill-32" fill="#FFFFFE"></path>
        <path d="M320.035,91.281 C320.035,90.445 319.865,89.952 319.523,89.571 C319.275,89.325 318.896,89.153 318.611,89.153 C318.174,89.153 317.719,89.229 317.262,89.685 C316.654,90.331 316.578,91.205 316.578,91.927 C316.578,92.573 316.787,93.162 317.186,93.58 C317.527,93.903 317.869,94.055 318.326,94.055 C319.617,94.055 320.035,92.477 320.035,91.281 Z M321.803,99.374 C321.803,98.253 320.947,97.398 319.047,97.531 L317.225,97.665 C316.635,97.816 315.705,98.462 315.705,99.488 C315.705,99.963 316.064,100.532 316.445,100.799 C317.072,101.235 317.756,101.331 319.105,101.331 C319.807,101.331 321.896,100.837 321.803,99.374 Z M315.533,101.331 C314.85,100.913 314.564,100.419 314.564,99.792 C314.564,98.727 315.646,97.911 316.559,97.513 L316.559,97.437 C315.762,97.266 315.287,96.677 315.287,96.106 C315.287,95.194 316.33,94.549 316.996,94.302 L316.996,94.264 C316.256,93.94 315.229,93.067 315.229,91.376 C315.229,90.142 316.33,88.622 318.479,88.622 C319.922,88.622 320.682,89.495 320.871,89.724 C321.385,89.362 322.029,88.982 322.656,88.982 C323.283,88.982 323.588,89.4 323.551,89.78 C323.551,90.142 323.246,90.483 322.809,90.483 C322.486,90.483 322.297,90.331 322.145,90.198 C322.029,90.122 321.896,90.027 321.746,90.027 C321.611,90.027 321.385,90.027 321.137,90.142 C321.289,90.521 321.422,90.939 321.422,91.585 C321.422,92.326 321.213,93.048 320.719,93.637 C320.225,94.188 319.143,94.587 318.516,94.587 C318.098,94.587 317.832,94.567 317.547,94.491 C317.166,94.644 316.539,95.024 316.539,95.556 C316.539,96.335 317.49,96.277 318.762,96.202 C320.32,96.126 321.27,96.296 322.029,96.886 C322.848,97.493 322.941,98.253 322.961,98.709 C322.961,99.602 322.639,100.343 321.688,101.046 C321.193,101.407 320.055,101.938 318.439,101.938 C317.527,101.938 316.445,101.844 315.533,101.331 Z" id="Fill-33" fill="#FFFFFE"></path>
    </g>
</svg>