<?xml version="1.0" encoding="UTF-8"?>
<svg width="465px" height="110px" viewBox="0 0 465 110" version="1.1" xmlns="http://www.w3.org/2000/svg" xmlns:xlink="http://www.w3.org/1999/xlink">
    <!-- Generator: Sketch 52.6 (67491) - http://www.bohemiancoding.com/sketch -->
    <title>HackSC</title>
    <desc>Created with Sketch.</desc>
    <g id="Page-1" stroke="none" stroke-width="1" fill="none" fill-rule="evenodd">
        <g id="HackSC-Landing-Copy" transform="translate(-155.000000, -260.000000)" fill="#000000">
            <g id="HackSC" transform="translate(155.000000, 260.000000)">
                <path d="M66.804,107.536 L50.958,107.536 L50.958,74.02 L15.732,74.02 L15.732,107.536 L0,107.536 L0,26.71 L15.732,26.71 L15.732,59.2 L50.958,59.2 L50.958,26.71 L66.804,26.71 L66.804,107.536 Z M73.7840002,92.26 C73.7840002,82.228 81.1940002,76.642 90.5420002,75.274 L104.336,73.222 C107.528,72.766 108.554,71.17 108.554,69.232 C108.554,65.242 105.476,61.936 99.0920002,61.936 C92.4800002,61.936 88.8320002,66.154 88.3760002,71.056 L74.9240002,68.206 C75.8360002,59.428 83.9300002,49.738 98.9780002,49.738 C116.762,49.738 123.374,59.77 123.374,71.056 L123.374,98.644 C123.374,101.608 123.716,105.598 124.058,107.536 L110.15,107.536 C109.808,106.054 109.58,102.976 109.58,100.81 C106.73,105.256 101.372,109.132 93.0500002,109.132 C81.0800002,109.132 73.7840002,101.038 73.7840002,92.26 Z M96.2420002,97.846 C102.626,97.846 108.554,94.768 108.554,84.85 L108.554,82.342 L95.9000002,84.28 C92.0240002,84.85 88.9460002,87.016 88.9460002,91.348 C88.9460002,94.654 91.3400002,97.846 96.2420002,97.846 Z M156.916,63.76 C149.164,63.76 142.666,69.346 142.666,79.492 C142.666,89.638 149.278,95.338 157.03,95.338 C164.782,95.338 168.658,90.208 169.912,85.876 L183.25,90.322 C180.742,99.67 171.964,109.246 157.03,109.246 C140.5,109.246 127.504,96.706 127.504,79.492 C127.504,62.164 140.272,49.738 156.574,49.738 C171.85,49.738 180.514,59.2 182.908,68.662 L169.342,73.222 C167.974,68.548 164.44,63.76 156.916,63.76 Z M242.100001,51.448 L219.642001,75.046 L242.556001,107.536 L223.974001,107.536 L209.154001,86.104 L202.884001,92.716 L202.884001,107.536 L187.722001,107.536 L187.722001,25 L202.884001,25 L202.884001,72.31 L222.264001,51.448 L242.100001,51.448 Z M300.266001,45.976 L286.130001,50.308 C285.332001,45.862 281.684001,38.908 271.424001,38.908 C263.786001,38.908 258.770001,43.81 258.770001,49.168 C258.770001,53.614 261.620001,57.148 267.548001,58.288 L278.834001,60.454 C293.540001,63.304 301.406001,72.88 301.406001,84.28 C301.406001,96.706 291.032001,109.246 272.222001,109.246 C250.790001,109.246 241.328001,95.452 240.074001,83.938 L254.666001,80.062 C255.350001,88.042 260.936001,95.224 272.336001,95.224 C280.772001,95.224 285.446001,91.006 285.446001,85.306 C285.446001,80.632 281.912001,76.984 275.642001,75.73 L264.356001,73.45 C251.474001,70.828 243.152001,62.506 243.152001,50.308 C243.152001,35.944 256.034001,25 271.310001,25 C290.918001,25 298.442001,36.856 300.266001,45.976 Z M344.638001,109.246 C322.066001,109.246 303.256001,92.944 303.256001,67.18 C303.256001,41.416 322.750001,25 344.410001,25 C366.754001,25 378.268001,38.68 381.460001,51.79 L366.640001,56.464 C364.702001,48.712 358.432001,40.162 344.410001,40.162 C332.326001,40.162 319.558001,48.826 319.558001,67.18 C319.558001,84.394 331.642001,93.856 344.638001,93.856 C358.432001,93.856 365.158001,84.85 367.324001,77.326 L382.030001,81.772 C378.952001,94.198 367.324001,109.246 344.638001,109.246 Z" id="HackSC-Copy"></path>
                <path d="M397,5.53333333 C397,2.90877193 398.932886,1 401.530201,1 C404.127517,1 406,2.90877193 406,5.53333333 C406,6.01052632 405.879195,6.72631579 405.758389,7.08421053 L402.919463,18 L400.080537,18 L397.241611,7.08421053 C397.181208,6.78596491 397,6.07017544 397,5.53333333 Z M428,40 L419.583618,40 L419.583618,13.9198767 L410,13.9198767 L410,8.33127889 C415.836177,8.27118644 419.890785,5.08628659 420.68942,1 L428,1 L428,40 Z M435.159449,38.826215 L437.234252,32.1237113 C438.637795,32.9086892 441.505906,33.814433 444.251969,33.814433 C451.452756,33.814433 456.273622,29.8895434 456.822835,22.7039764 C455.175197,25.179676 451.818898,26.9307806 447.669291,26.9307806 C440.285433,26.9307806 434,21.8586156 434,13.7673049 C434,5.73637703 440.40748,0 449.194882,0 C457.799213,0 465,6.03829161 465,18.5375552 C465,32.6671576 457.860236,41 444.312992,41 C440.956693,41 437.234252,40.0942563 435.159449,38.826215 Z M455,13.5 C455,9.61214953 452.026906,7 448.470852,7 C444.973094,7 442,9.61214953 442,13.5 C442,17.4485981 444.914798,20 448.470852,20 C452.026906,20 455,17.3878505 455,13.5 Z" id="'19"></path>
            </g>
        </g>
    </g>
</svg>